<?xml version="1.0" encoding="UTF-8"?>
<svg width="60px" height="60px" viewBox="0 0 60 60" version="1.1" xmlns="http://www.w3.org/2000/svg" xmlns:xlink="http://www.w3.org/1999/xlink">
    <!-- Generator: Sketch 42 (36781) - http://www.bohemiancoding.com/sketch -->
    <title>icon</title>
    <desc>Created with Sketch.</desc>
    <defs>
        <linearGradient x1="50%" y1="0%" x2="50%" y2="100%" id="linearGradient-1">
            <stop stop-color="#D2E3E7" offset="0%"></stop>
            <stop stop-color="#ABB3B3" offset="100%"></stop>
        </linearGradient>
        <path d="M45.703125,1.02273262e-15 C54.375,1.02273262e-15 60,5.625 60,14.296875 L60,45.703125 C60,54.375 54.375,60 45.703125,60 L14.296875,60 C5.625,60 0,54.375 0,45.703125 L0,14.296875 C0,5.625 5.625,1.02273263e-15 14.296875,1.02273263e-15 L45.703125,1.02273262e-15 Z" id="path-2"></path>
        <linearGradient x1="50%" y1="0%" x2="50%" y2="100%" id="linearGradient-4">
            <stop stop-color="#FBEF06" offset="0%"></stop>
            <stop stop-color="#FB9804" offset="100%"></stop>
        </linearGradient>
        <path d="M0.0531070284,0.259376463 L2.89281199,0.358541045 L5.88472685,0.025051597 L6.10627555,1.2992151 C6.10627555,1.2992151 4.32109475,1.32241091 2.89280091,1.29925307 C1.46450707,1.27609524 0.0202409373,1.20053701 0.0202409373,1.20053701 L0.0531070284,0.259376463 Z" id="path-5"></path>
        <path d="M0.832153791,16.9012594 C0.832153791,16.9012594 0.469929642,16.8634506 0.570649418,16.541516 C0.640646597,16.1759409 2.23779369,13.7033399 2.61687025,12.996929 C2.73810419,12.7712281 2.80546719,11.5477033 3.84813857,10.0956536 C5.03526421,8.44238582 7.21579416,6.54447955 7.38284463,6.39830239 C7.69665209,6.12362791 11.260641,3.40127896 12.2337527,2.86679373 C12.9005876,2.50056373 15.6202391,0.682489701 22.0009487,0.590934179 C28.3816582,0.499378657 30.9053916,1.48035328 30.9053916,1.48035328 C31.022846,1.5229194 31.4281852,1.63730448 31.6373928,1.74194388 C31.8465925,1.84658328 31.8465925,1.79426358 31.9512003,1.95121478 C32.0558001,2.10817388 32.5406157,2.83420269 32.6834072,3.04990478 C32.9818763,3.50095851 33.2587182,3.93932388 33.6771255,4.56714448 C34.2333249,5.40172836 34.6171399,6.03066433 34.6708439,6.08438418 C34.6708439,6.08438418 34.8379996,6.3175209 35.0108033,6.3263094 C35.3712587,6.3449306 38.0573303,6.26750313 39.45638,6.45061418 C40.8040672,6.62703299 43.4835494,7.07844269 45.1179507,7.98093776 C45.6932618,8.28177209 47.1838354,9.05346791 47.7852984,9.79901179 C48.3867613,10.5445478 48.1380173,10.6099434 48.1380173,10.6099434 L41.1300093,10.3483528 L38.2011581,13.0862933 L35.795314,16.5873475 L16.5747296,17.0712945 L14.6134448,12.1271831 L11.1877384,10.1129221 L7.21286572,10.4529922 L4.85932399,12.0748713 L3.23799624,14.089134 L1.3951546,16.9657374 L0.832153791,16.9012594 Z" id="path-7"></path>
        <path d="M0.0696989552,0.168280537 C0.0696989552,0.103111896 0.122730597,0.0502819701 0.188379403,0.0502819701 L0.474033582,0.0502819701 C0.539571642,0.0502819701 0.592706119,0.103610254 0.592706119,0.168280537 L0.592706119,0.978656075 C0.592706119,1.04382472 0.539682388,1.09665464 0.474033582,1.09665464 L0.188379403,1.09665464 C0.122833433,1.09665464 0.0696989552,1.04332636 0.0696989552,0.978656075 L0.0696989552,0.168280537 Z M0.0696989552,0.0502819701 L0.592706119,0.0502819701 L0.592706119,1.09665464 L0.0696989552,1.09665464 L0.0696989552,0.0502819701 Z" id="path-9"></path>
        <path d="M0.0173950746,0.14556806 C0.0173950746,0.080401791 0.0704267164,0.0275679104 0.136075522,0.0275679104 L0.421729701,0.0275679104 C0.487275672,0.0275679104 0.540410149,0.0809001493 0.540410149,0.14556806 L0.540410149,0.95594597 C0.540410149,1.02111224 0.487378507,1.07393821 0.421729701,1.07393821 L0.136075522,1.07393821 C0.0705295522,1.07393821 0.0173950746,1.02061388 0.0173950746,0.95594597 L0.0173950746,0.14556806 Z M0.0173950746,0.0275679104 L0.540410149,0.0275679104 L0.540410149,1.07393821 L0.0173950746,1.07393821 L0.0173950746,0.0275679104 Z" id="path-11"></path>
        <path d="M8.26108627,0.0715341791 C8.26108627,0.0715341791 1.98497657,0.472609701 0.206747463,3.1408591 C-0.176830149,4.18733224 0.014911194,4.57093358 0.485614478,4.88484388 C0.956325672,5.19875418 1.90506522,5.09412269 4.73433179,5.00695746 C7.5637091,4.91979224 8.47019104,4.90231806 8.47019104,4.90231806 C8.47019104,4.90231806 9.51630821,4.98948328 9.39424209,4.04774448 C9.37676791,2.93169104 9.40407478,0.751674478 9.40407478,0.751674478 C9.40407478,0.751674478 9.42907179,0.350598955 9.09779806,0.158802239 C8.76662716,-0.0331052239 8.34926403,0.0650476119 8.26108627,0.0715341791 Z" id="path-13"></path>
        <path d="M0.0334058209,2.91405866 L0.0334058209,4.29181343 C0.0334058209,4.29181343 0.0508720896,4.91963403 0.905050149,4.88468567 C1.82910119,4.88468567 9.74401045,4.78005418 10.2147216,4.72773448 C10.6854249,4.67541478 11.2084321,4.64203269 11.0340621,3.90004851 C10.633129,3.17564925 9.8137806,1.85020627 9.43020299,1.44913866 C9.04663328,1.04795239 8.26211463,0.385286269 5.42039701,0.158541194 C2.57878224,-0.0681010448 0.765723433,0.0407150746 0.765723433,0.0407150746 C0.765723433,0.0407150746 -0.00153462687,0.0190562687 0.0334058209,0.768990448 C0.0683383582,1.51882179 0.0334058209,2.91405866 0.0334058209,2.91405866 Z" id="path-15"></path>
        <path d="M0.00950835821,0.0689237313 L0.898626866,4.54216328 L0.00950835821,0.0689237313 Z" id="path-17"></path>
        <path d="M0.0577843518,3.42295789 C0.662675303,2.9336974 3.61500092,0.687761095 4.68100997,0.0451075311 C4.54142414,0.366113299 4.33681672,0.701735288 4.03715239,0.983869851 C3.14803388,1.82096925 1.16059716,3.49516806 1.16059716,3.49516806 C1.16059716,3.49516806 0.480686269,4.12298866 0.166878806,3.75675866 C0.126911057,3.70878072 0.0906084799,3.58991749 0.0577843518,3.42295789 L0.0577843518,3.42295789 Z" id="path-19"></path>
        <path d="M0.0606731343,7.61831097 L1.08959299,2.5748903 L4.69835507,0.0112802985 L10.3468578,1.16229 L12.6172275,6.0142636 C12.6172275,6.0142636 12.6191497,6.07540978 12.5616882,6.06773585 C12.1186003,6.00856254 9.98014522,5.78007242 6.34583239,6.28951079 C2.77094284,6.79062025 0.643388358,7.49006284 0.153075075,7.66252167 C0.0802831343,7.68812463 0.0606731343,7.61831097 0.0606731343,7.61831097 Z" id="path-21"></path>
        <path d="M14.4946694,6.69928781 C10.8336034,5.9145089 6.12652313,5.39132296 0.00731479104,5.70523404 C3.3545733,2.19988761 5.44660987,0.107147015 5.44660987,0.107147015 L12.6118325,0.00250761194 L14.6515731,4.65886216 C14.6515731,4.65886216 14.7038691,4.65886216 14.4946694,6.69928781 Z" id="path-23"></path>
        <path d="M9.74916015,4.92350066 C9.74916015,7.60106461 7.57936388,9.77170908 4.90258701,9.77170908 C2.22581806,9.77170908 0.056021,7.60106461 0.056021,4.92350066 C0.056021,2.2459367 2.22581806,0.0752916418 4.90258701,0.0752916418 C7.57936388,0.0752916418 9.74916015,2.2459367 9.74916015,4.92350066 Z" id="path-25"></path>
        <path d="M7.55211278,3.81603609 C7.55211278,5.89161972 5.87011428,7.5742914 3.79512472,7.5742914 C1.72014308,7.5742914 0.0381429925,5.89161972 0.0381429925,3.81603609 C0.0381429925,1.74045246 1.72014308,0.0577839422 3.79512472,0.0577839422 C5.87011428,0.0577839422 7.55211278,1.74045246 7.55211278,3.81603609 Z" id="path-27"></path>
        <path d="M3.37845692,2.77196378 C3.37845692,3.11862649 3.09749363,3.39957712 2.75094483,3.39957712 C2.40429319,3.39957712 2.12344065,3.11862649 2.12344065,2.77196378 C2.12344065,2.42519585 2.40429319,2.14414002 2.75094483,2.14414002 C3.09749363,2.14414002 3.37845692,2.42519585 3.37845692,2.77196378 Z" id="path-29"></path>
        <path d="M9.74916015,4.92350066 C9.74916015,7.60106461 7.57936388,9.77170908 4.90258701,9.77170908 C2.22581806,9.77170908 0.056021,7.60106461 0.056021,4.92350066 C0.056021,2.2459367 2.22581806,0.0752916418 4.90258701,0.0752916418 C7.57936388,0.0752916418 9.74916015,2.2459367 9.74916015,4.92350066 Z" id="path-31"></path>
        <path d="M7.55211278,3.81603609 C7.55211278,5.89161972 5.87011428,7.5742914 3.79512472,7.5742914 C1.72014308,7.5742914 0.0381429925,5.89161972 0.0381429925,3.81603609 C0.0381429925,1.74045246 1.72014308,0.0577839422 3.79512472,0.0577839422 C5.87011428,0.0577839422 7.55211278,1.74045246 7.55211278,3.81603609 Z" id="path-33"></path>
        <path d="M3.37845692,2.77196378 C3.37845692,3.11862649 3.09749363,3.39957712 2.75094483,3.39957712 C2.40429319,3.39957712 2.12344065,3.11862649 2.12344065,2.77196378 C2.12344065,2.42519585 2.40429319,2.14414002 2.75094483,2.14414002 C3.09749363,2.14414002 3.37845692,2.42519585 3.37845692,2.77196378 Z" id="path-35"></path>
        <path d="M15.9740339,8.72931279 C15.9740339,8.46226082 16.2508996,4.68414237 13.9496633,2.19022104 C11.4740491,-0.181592239 9.16515552,0.104924179 8.85900537,0.0451528358 C8.3126703,0.0178301493 7.48823552,0.0884150746 6.78730657,0.259731642 C6.08637445,0.431056119 5.61427893,0.616152687 5.37273024,0.724470448 C5.27474827,0.790293284 4.53591561,1.09070045 4.01290607,1.45693045 C3.95663115,1.50071478 3.78311152,1.63281925 3.7514017,1.66620925 C3.30831696,2.13272791 3.0543109,2.5690603 2.75768413,3.02648985 C2.16664316,4.08360254 2.34203836,4.05620075 1.43279804,5.55556125 C0.52355694,7.05492097 0.0729738806,7.70041509 0.0729738806,7.70041509 C0.0729738806,7.70041509 2.86228636,8.18917555 4.23957837,5.55556125 C5.61687118,2.92194537 7.63861313,2.46855806 9.01611478,2.46855806 C10.3936164,2.46855806 12.381156,3.11709612 13.6189116,5.42622939 C14.0896149,6.40981921 14.2465187,8.04917091 14.2465187,8.04917091 C14.2465187,8.04917091 14.3332013,8.72931279 15.0310373,8.72931279 L15.9740339,8.72931279 Z" id="path-37"></path>
        <path d="M3.45749851,7.15374699 C3.36596672,7.61802224 3.66094731,6.19087542 3.66094731,6.19087542 C3.66094731,6.19087542 3.35948806,7.91885419 3.1109497,8.24595042 C2.86262493,8.57294143 2.75143567,8.67098669 2.12382075,8.64482684 C1.49621373,8.61866778 0.0297986567,8.59910049 0.0297986567,8.59910049 L0.0297986567,8.56425655 C0.0297986567,8.56425655 0.395799254,1.11764343 7.02065687,0.106118657 C8.17116821,-0.242637164 12.7736487,0.681722388 13.3837894,1.25723119 C13.8021967,1.55366731 13.8893303,1.93737149 14.0288706,2.4082409 C14.1683081,2.8791103 14.3600415,3.97769746 14.6215451,4.41371343 C14.8830487,4.84974048 15.196959,6.33213545 15.2143224,6.95995842 C15.2317887,7.58778218 13.2616204,4.6579406 13.0525157,4.39635 C12.843316,4.13475149 11.309227,1.90242313 8.62440522,1.85010343 C6.61950224,1.90242313 5.1550806,3.38471448 4.89357701,3.73357313 C4.63207343,4.08243179 4.02192478,4.7277329 3.63835507,6.27981654 L3.45749851,7.15374699 Z" id="path-39"></path>
        <path d="M0.248024179,0.509871075 L19.2070813,0.0782430299 C19.2070813,0.0782430299 19.7404354,0.280415881 19.8346963,1.24233187 C18.5010185,1.26849093 0.0724280597,1.44869409 0.0724280597,1.44869409 C0.0724280597,1.44869409 0.0804492537,0.95549903 0.248024179,0.509871075 Z" id="path-41"></path>
    </defs>
    <g id="Welcome" stroke="none" stroke-width="1" fill="none" fill-rule="evenodd">
        <g id="Desktop" transform="translate(-258.000000, -671.000000)">
            <g id="iPad-block" transform="translate(0.000000, 600.000000)">
                <g id="icon" transform="translate(258.000000, 71.000000)">
                    <mask id="mask-3" fill="white">
                        <use xlink:href="#path-2"></use>
                    </mask>
                    <use id="App-Icon-Shape" fill="url(#linearGradient-1)" xlink:href="#path-2"></use>
                    <rect id="Background" fill="url(#linearGradient-4)" mask="url(#mask-3)" x="0" y="0" width="60" height="60"></rect>
                    <g id="beetle" mask="url(#mask-3)">
                        <g transform="translate(3.500000, 18.605000)">
                            <g id="Group-3" stroke="none" stroke-width="1" fill="none" fill-rule="evenodd" transform="translate(0.316418, 16.034478)">
                                <mask id="mask-6" fill="white">
                                    <use xlink:href="#path-5"></use>
                                </mask>
                                <g id="Clip-2"></g>
                                <polygon id="Fill-1" fill="#000000" mask="url(#mask-6)" points="-0.313095285 -0.587144284 6.55953155 -0.347147627 6.48340931 1.83270678 -0.389217497 1.59270933"></polygon>
                            </g>
                            <path d="M1.33051263,16.901257 C1.33051263,16.901257 0.96828793,16.8634451 1.06900803,16.5415136 C1.13900536,16.1759401 2.7361519,13.7033319 3.11522925,12.996929 C3.2364624,12.7712281 3.30382619,11.5477033 4.34649678,10.0956536 C5.53362321,8.44238345 7.71415316,6.54447401 7.88120204,6.39829606 C8.19500713,6.12362316 11.7590024,3.40127658 12.7321141,2.86678978 C13.398949,2.50055978 16.1185926,0.682488357 22.49931,0.590930779 C28.8800196,0.499373199 31.4037451,1.48034696 31.4037451,1.48034696 C31.5212073,1.52291228 31.9265466,1.6373029 32.1357542,1.74193993 C32.3449539,1.84657696 32.3449539,1.79425884 32.4495538,1.95121478 C32.5541615,2.10817072 33.038977,2.83420348 33.1817685,3.04990557 C33.4802376,3.50095851 33.7570796,3.93932151 34.1754869,4.56714448 C34.7316863,5.40172678 35.1155012,6.03066433 35.1692053,6.08438418 C35.1692053,6.08438418 35.336353,6.31751615 35.5091567,6.32630545 C35.86962,6.3449306 38.5556838,6.26749918 39.9547335,6.45061418 C41.3024285,6.62703299 43.9819108,7.07843794 45.6163121,7.98093381 C46.1916232,8.28176576 47.6821967,9.05346791 48.2836597,9.79900388 C48.8851148,10.5445478 48.6363708,10.6099434 48.6363708,10.6099434 L41.6283627,10.3483528 L38.6995115,13.0862854 L36.2936754,16.5873467 L17.0730909,17.0712921 L15.1118061,12.1271831 L11.6860918,10.1129142 L7.71122393,10.4529843 L5.35768299,12.0748634 L3.73635445,14.0891324 L1.8935136,16.9657351 L1.33051263,16.901257 Z" id="Stroke-14" stroke="#19191A" stroke-width="1" fill="none"></path>
                            <g id="Group-96" stroke="none" stroke-width="1" fill="none" fill-rule="evenodd" transform="translate(0.498358, 0.000000)">
                                <g id="Group-25">
                                    <mask id="mask-8" fill="white">
                                        <use xlink:href="#path-7"></use>
                                    </mask>
                                    <g id="Clip-16"></g>
                                    <polygon id="Fill-15" fill="#EA5871" mask="url(#mask-8)" points="0.1574365 0.189376119 48.5845146 0.189376119 48.5845146 17.4668169 0.1574365 17.4668169"></polygon>
                                    <g id="Group" mask="url(#mask-8)" stroke="#19191A">
                                        <g transform="translate(6.890000, 1.060000)" id="Stroke-81">
                                            <path d="M5.50065642,0.681943881 C5.50065642,0.681943881 5.44835491,1.98990873 4.55923957,2.82700655 C3.67012422,3.66410437 1.68268909,5.33830001 1.68268909,5.33830001 C1.68268909,5.33830001 1.00277756,5.96612299 0.688972076,5.59989299 C0.427467545,5.2859811 0.322865716,1.93759061 0.322865716,1.93759061 L5.13454982,0.838899663"></path>
                                        </g>
                                    </g>
                                </g>
                                <g id="Group-48" transform="translate(35.019552, 15.085224)">
                                    <mask id="mask-10" fill="white">
                                        <use xlink:href="#path-9"></use>
                                    </mask>
                                    <g id="Clip-47"></g>
                                    <path d="M0.0696989552,0.168280537 C0.0696989552,0.103111896 0.122730597,0.0502819701 0.188379403,0.0502819701 L0.474033582,0.0502819701 C0.539571642,0.0502819701 0.592706119,0.103610254 0.592706119,0.168280537 L0.592706119,0.978656075 C0.592706119,1.04382472 0.539682388,1.09665464 0.474033582,1.09665464 L0.188379403,1.09665464 C0.122833433,1.09665464 0.0696989552,1.04332636 0.0696989552,0.978656075 L0.0696989552,0.168280537 Z" id="Fill-46" fill="#CC455C" mask="url(#mask-10)"></path>
                                </g>
                                <g id="Group-54" transform="translate(35.019552, 8.044925)">
                                    <mask id="mask-12" fill="white">
                                        <use xlink:href="#path-11"></use>
                                    </mask>
                                    <g id="Clip-53"></g>
                                    <path d="M0.0173950746,0.14556806 C0.0173950746,0.080401791 0.0704267164,0.0275679104 0.136075522,0.0275679104 L0.421729701,0.0275679104 C0.487275672,0.0275679104 0.540410149,0.0809001493 0.540410149,0.14556806 L0.540410149,0.95594597 C0.540410149,1.02111224 0.487378507,1.07393821 0.421729701,1.07393821 L0.136075522,1.07393821 C0.0705295522,1.07393821 0.0173950746,1.02061388 0.0173950746,0.95594597 L0.0173950746,0.14556806 Z" id="Fill-52" fill="#CC455C" mask="url(#mask-12)"></path>
                                </g>
                                <g id="Group-62" transform="translate(12.079254, 2.507612)">
                                    <mask id="mask-14" fill="white">
                                        <use xlink:href="#path-13"></use>
                                    </mask>
                                    <g id="Clip-61"></g>
                                    <polygon id="Fill-60" fill="#AEBEC3" mask="url(#mask-14)" points="-0.393275821 -0.354807313 9.80002433 -0.354807313 9.80002433 5.49189955 -0.393275821 5.49189955"></polygon>
                                </g>
                                <path d="M20.34034,2.57914819 C20.34034,2.57914819 13.6458791,2.94527376 12.286003,5.64847184 C11.9024281,6.69494813 12.0941633,7.0785479 12.5648715,7.39245978 C13.0355794,7.70637166 13.9843182,7.60173463 16.8135887,7.51457178 C19.6429628,7.42740893 20.5494448,7.40993396 20.5494448,7.40993396 C20.5494448,7.40993396 21.5955619,7.49709681 21.4734958,6.55536196 C21.4560296,5.4393014 21.4833285,3.25929006 21.4833285,3.25929006 C21.4833285,3.25929006 21.4384051,2.80610628 21.1770518,2.6664156 C20.9157064,2.52672495 20.34034,2.57914819 20.34034,2.57914819 Z" id="Stroke-63" stroke="#19191A" stroke-width="0.5"></path>
                                <g id="Group-67" transform="translate(22.521045, 2.507612)">
                                    <mask id="mask-16" fill="white">
                                        <use xlink:href="#path-15"></use>
                                    </mask>
                                    <g id="Clip-66"></g>
                                    <polygon id="Fill-65" fill="#AEBEC3" mask="url(#mask-16)" points="-0.363279403 -0.380919701 11.4639237 -0.380919701 11.4639237 5.28161612 -0.363279403 5.28161612"></polygon>
                                </g>
                                <path d="M22.5544457,5.42166743 L22.5544457,6.79942537 C22.5544457,6.79942537 22.5719142,7.42724834 23.4260926,7.39229999 C24.3501452,7.39229999 32.2650552,7.28766216 32.7357585,7.23534404 C33.2064697,7.18302513 33.7294769,7.14964621 33.5551069,6.40766361 C33.1541658,5.6832604 32.3348175,4.35782058 31.9512478,3.95674585 C31.5676701,3.55556749 30.7831594,2.89289971 27.9414394,2.66615092 C25.0998262,2.4395067 23.2867631,2.5483294 23.2867631,2.5483294 C23.2867631,2.5483294 22.5195087,2.52666949 22.5544457,3.27660437 C22.5893827,4.02643452 22.5544457,5.42166743 22.5544457,5.42166743 Z" id="Stroke-68" stroke="#1A1A19" stroke-width="0.5"></path>
                                <g id="Group-72" transform="translate(29.640448, 2.824030)">
                                    <mask id="mask-18" fill="white">
                                        <use xlink:href="#path-17"></use>
                                    </mask>
                                    <g id="Clip-71"></g>
                                    <polygon id="Fill-70" fill="#A84D5A" mask="url(#mask-18)" points="-0.38601403 -0.326598657 1.29414925 -0.326598657 1.29414925 4.93768567 -0.38601403 4.93768567"></polygon>
                                </g>
                                <g id="Group-77" transform="translate(29.640448, 2.460149)" stroke="#1A1A19" stroke-width="0.5">
                                    <path d="M0.00950835821,0.432804328 L0.898623701,4.90604467" id="Stroke-73"></path>
                                </g>
                                <g id="Group-80" transform="translate(7.412090, 2.903134)">
                                    <mask id="mask-20" fill="white">
                                        <use xlink:href="#path-19"></use>
                                    </mask>
                                    <g id="Clip-79"></g>
                                    <polygon id="Fill-78" fill-opacity="0.9995" fill="#ADBEC3" mask="url(#mask-20)" points="-0.594746224 -1.55671284 5.37408925 -1.55671284 5.37408925 4.26699045 -0.594746224 4.26699045"></polygon>
                                </g>
                            </g>
                            <path d="M3.93575793,10.8833072 C3.86286877,10.9370943 3.73550803,11.0532533 3.63175254,11.2639309 C3.47673194,11.5787033 3.26528096,12.5054932 3.63175254,13.5136307 L5.0438771,13.5136307 L5.61918736,10.8453821 L4.05015985,10.8453821 C4.05015985,10.8453821 3.97177214,10.8567312 3.93575793,10.8833072 Z" id="Stroke-97" stroke="#19191A" stroke-width="0.5" fill="#C30910" fill-rule="evenodd"></path>
                            <g id="Group-160" stroke="none" stroke-width="1" fill="none" fill-rule="evenodd" transform="translate(49.519403, 10.576269)">
                                <g id="Group-154" stroke="#19191A" stroke-width="0.5" fill="#E2E4DF">
                                    <path d="M0.555560634,0.0598395709 C0.699509584,0.0912294537 0.951697269,0.224557124 1.07856978,0.478388442 C1.13087049,0.58302563 1.19232834,0.8290154 1.23547272,1.05389313 C1.2786163,1.27877055 1.28777343,1.56564136 1.28777343,1.83867204 C1.28777343,2.06912712 1.24907315,2.68492225 1.13087049,2.83272581 C0.869366119,2.36185799 0.660162463,1.57707907 0.660162463,1.57707907 L0.463912639,0.889972045 L0.0325514925,0.0598395709 C0.0325514925,0.0598395709 0.411611685,0.0284496801 0.555560634,0.0598395709 Z" id="Stroke-153"></path>
                                </g>
                            </g>
                            <g id="Group-163" stroke="none" stroke-width="1" fill="none" fill-rule="evenodd" transform="translate(38.682090, 10.101642)">
                                <mask id="mask-22" fill="white">
                                    <use xlink:href="#path-21"></use>
                                </mask>
                                <g id="Clip-162"></g>
                                <polygon id="Fill-161" fill="#000000" mask="url(#mask-22)" points="-0.334849254 -0.38424209 13.0127578 -0.38424209 13.0127578 8.06368737 -0.334849254 8.06368737"></polygon>
                            </g>
                            <path d="M38.7427627,17.7199543 L39.7716841,12.6765337 L43.380447,10.1129221 L49.0289473,11.2639318 L51.299317,16.115907 C51.299317,16.115907 51.3012393,16.1770539 51.2437778,16.16938 C50.8006899,16.1102059 48.6622348,15.8817166 45.0279259,16.391155 C41.4530332,16.8922644 39.32548,17.591707 38.835165,17.7641658 C38.7623727,17.7897688 38.7427627,17.7199543 38.7427627,17.7199543 Z" id="Stroke-164" stroke="#000000" stroke-width="1" fill="none"></path>
                            <g id="Group-167" stroke="none" stroke-width="1" fill="none" fill-rule="evenodd" transform="translate(1.898507, 11.209104)">
                                <mask id="mask-24" fill="white">
                                    <use xlink:href="#path-23"></use>
                                </mask>
                                <g id="Clip-166"></g>
                                <polygon id="Fill-165" fill="#000000" mask="url(#mask-24)" points="-0.388207597 -0.393014776 15.0529018 -0.393014776 15.0529018 7.09481019 -0.388207597 7.09481019"></polygon>
                            </g>
                            <path d="M16.3931745,17.9083939 C12.7321085,17.1236142 8.02502901,16.6004282 1.90582225,16.9143401 C5.25308076,13.4089937 7.34511733,11.3162493 7.34511733,11.3162493 L14.5103455,11.2116121 L16.5500782,15.8679682 C16.5500782,15.8679682 16.6023821,15.8679682 16.3931745,17.9083939 Z" id="Stroke-168" stroke="#000000" stroke-width="1" fill="none"></path>
                            <g id="back-wheel" stroke="none" stroke-width="1" fill="none" fill-rule="evenodd" transform="translate(5.396364, 11.900909)">
                                <g id="Group-171" transform="translate(0.061845, 0.020136)">
                                    <mask id="mask-26" fill="white">
                                        <use xlink:href="#path-25"></use>
                                    </mask>
                                    <g id="Clip-170"></g>
                                    <polygon id="Fill-169" fill="#1C1D1B" mask="url(#mask-26)" points="-0.339501388 -0.320230746 10.1446825 -0.320230746 10.1446825 10.1672314 -0.339501388 10.1672314"></polygon>
                                </g>
                                <g id="Group-174" transform="translate(1.169308, 1.127598)">
                                    <mask id="mask-28" fill="white">
                                        <use xlink:href="#path-27"></use>
                                    </mask>
                                    <g id="Clip-173"></g>
                                    <polygon id="Fill-172" fill="#E2E4DF" mask="url(#mask-28)" points="-0.357379791 -0.337736567 7.94763478 -0.337736567 7.94763478 7.96981528 -0.357379791 7.96981528"></polygon>
                                </g>
                                <g id="Group-197" transform="translate(2.213487, 2.171777)">
                                    <ellipse id="Oval" stroke="#1D1E1C" stroke-width="0.5" fill="#BDBBBE" cx="2.75094878" cy="2.77185857" rx="2.65" ry="2.65"></ellipse>
                                    <mask id="mask-30" fill="white">
                                        <use xlink:href="#path-29"></use>
                                    </mask>
                                    <g id="Clip-196"></g>
                                    <polygon id="Fill-195" fill="#000000" mask="url(#mask-30)" points="1.72791866 1.74861793 3.7739797 1.74861793 3.7739797 3.79509981 1.72791866 3.79509981"></polygon>
                                </g>
                            </g>
                            <g id="front-wheel" stroke="none" stroke-width="1" fill="none" fill-rule="evenodd" transform="translate(39.893854, 11.900909)">
                                <g id="Group-171" transform="translate(0.061845, 0.020136)">
                                    <mask id="mask-32" fill="white">
                                        <use xlink:href="#path-31"></use>
                                    </mask>
                                    <g id="Clip-170"></g>
                                    <polygon id="Fill-169" fill="#1C1D1B" mask="url(#mask-32)" points="-0.339501388 -0.320230746 10.1446825 -0.320230746 10.1446825 10.1672314 -0.339501388 10.1672314"></polygon>
                                </g>
                                <g id="Group-174" transform="translate(1.169308, 1.127598)">
                                    <mask id="mask-34" fill="white">
                                        <use xlink:href="#path-33"></use>
                                    </mask>
                                    <g id="Clip-173"></g>
                                    <polygon id="Fill-172" fill="#E2E4DF" mask="url(#mask-34)" points="-0.357379791 -0.337736567 7.94763478 -0.337736567 7.94763478 7.96981528 -0.357379791 7.96981528"></polygon>
                                </g>
                                <g id="Group-197" transform="translate(2.213487, 2.171777)">
                                    <ellipse id="Oval" stroke="#1D1E1C" stroke-width="0.5" fill="#BDBBBE" cx="2.75094878" cy="2.77185857" rx="2.65" ry="2.65"></ellipse>
                                    <mask id="mask-36" fill="white">
                                        <use xlink:href="#path-35"></use>
                                    </mask>
                                    <g id="Clip-196"></g>
                                    <polygon id="Fill-195" fill="#000000" mask="url(#mask-36)" points="1.72791866 1.74861793 3.7739797 1.74861793 3.7739797 3.79509981 1.72791866 3.79509981"></polygon>
                                </g>
                            </g>
                            <g id="Group-271" stroke="none" stroke-width="1" fill="none" fill-rule="evenodd" transform="translate(1.344776, 9.231493)">
                                <mask id="mask-38" fill="white">
                                    <use xlink:href="#path-37"></use>
                                </mask>
                                <g id="Clip-270"></g>
                                <polygon id="Fill-269" fill="#EA5871" mask="url(#mask-38)" points="-0.322548507 -0.356080896 16.3799743 -0.356080896 16.3799743 9.12483518 -0.322548507 9.12483518"></polygon>
                            </g>
                            <path d="M17.31881,17.9607982 C17.31881,17.6937494 17.5956757,13.9156325 15.2944394,11.4217088 C12.8188252,9.04989721 10.5099316,9.33641502 10.2037815,9.27664608 C9.65744642,9.24932029 8.83301481,9.31990608 8.13208269,9.49122497 C7.43115057,9.66254383 6.95905504,9.84764246 6.71750636,9.95596132 C6.61952439,10.02178 5.88069173,10.3221914 5.35768219,10.6884214 C5.30140727,10.7322057 5.12788764,10.8643086 5.09617782,10.8976963 C4.65309228,11.3642189 4.39908701,11.8005536 4.10246025,12.25798 C3.51141928,13.3150887 3.68681448,13.2876917 2.77757337,14.7870506 C1.86833298,16.2864103 1.41775,16.9319045 1.41775,16.9319045 C1.41775,16.9319045 4.20706248,17.4206649 5.58435449,14.7870506 C6.96164651,12.1534371 8.98339084,11.7000435 10.3608909,11.7000435 C11.7383925,11.7000435 13.7259321,12.3485855 14.9636878,14.6577196 C15.434391,15.6413094 15.5912948,17.2806579 15.5912948,17.2806579 C15.5912948,17.2806579 15.6779696,17.9607982 16.3758134,17.9607982 L17.31881,17.9607982 Z" id="Stroke-272" stroke="#19191A" stroke-width="0.5" fill="none"></path>
                            <g id="Group-275" stroke="none" stroke-width="1" fill="none" fill-rule="evenodd" transform="translate(36.150746, 9.152388)">
                                <mask id="mask-40" fill="white">
                                    <use xlink:href="#path-39"></use>
                                </mask>
                                <g id="Clip-274"></g>
                                <polygon id="Fill-273" fill="#EA5871" mask="url(#mask-40)" points="-0.365723731 -0.365889851 15.6099634 -0.365889851 15.6099634 9.04436694 -0.365723731 9.04436694"></polygon>
                            </g>
                            <path d="M39.6082424,16.3061374 C39.5167154,16.7704127 39.8116928,15.3432659 39.8116928,15.3432659 C39.8116928,15.3432659 39.5102304,17.0712446 39.261696,17.3983416 C39.0133712,17.7253279 38.9021796,17.8233779 38.2745686,17.7972181 C37.6469576,17.7710582 36.1805449,17.7514878 36.1805449,17.7514878 L36.1805449,17.7166501 C36.1805449,17.7166501 36.5465467,10.2700354 43.1713984,9.25850725 C44.3219145,8.90975145 48.9243949,9.83411654 49.5345357,10.4096208 C49.952943,10.7060585 50.0400766,11.0897627 50.1796169,11.5606305 C50.3190543,12.0314976 50.5107878,13.1300839 50.7722913,13.566107 C51.0337949,14.0021309 51.3477052,15.4845259 51.3650687,16.1123489 C51.3825349,16.7401726 49.4123588,13.8103302 49.2032619,13.5487373 C48.9940622,13.2871443 47.4599654,11.0548144 44.7751515,11.0024954 C42.7702509,11.0548144 41.3058253,12.5371049 41.0443209,12.8859651 C40.7828157,13.2348262 40.1726734,13.8801233 39.789099,15.432207" id="Stroke-276" stroke="#19191A" stroke-width="0.5" fill="none"></path>
                            <g id="Group-279" stroke="none" stroke-width="1" fill="none" fill-rule="evenodd" transform="translate(17.086567, 16.509104)">
                                <mask id="mask-42" fill="white">
                                    <use xlink:href="#path-41"></use>
                                </mask>
                                <g id="Clip-278"></g>
                                <polygon id="Fill-277" fill="#1D1E1C" mask="url(#mask-42)" points="-0.323094328 -0.317279358 20.2302187 -0.317279358 20.2302187 1.84421648 -0.323094328 1.84421648"></polygon>
                            </g>
                            <path d="M17.3345914,17.018976 L36.2936485,16.5873475 C36.2936485,16.5873475 36.8270025,16.7895201 36.9212634,17.7514363 C35.5875857,17.7775954 17.1589952,17.9577986 17.1589952,17.9577986 C17.1589952,17.9577986 17.167014,17.4646035 17.3345914,17.018976 Z" id="Stroke-280" stroke="#19191A" stroke-width="0.5" fill="none"></path>
                            <path d="M2.45922792,16.0393014 C2.414825,16.1469389 2.28561574,16.2282353 2.17018649,16.2208145 L0.264507179,16.0972787 C0.0952552388,16.0862119 -0.015048021,15.9368484 0.0178141543,15.7642219 L0.127710145,15.1869318 C0.160619664,15.0140563 0.314694699,14.8739129 0.472916548,14.8739129 L2.71313036,14.8739129 C2.81864228,14.8739129 2.87316504,14.9610741 2.83432791,15.0688084 L2.45922792,16.0393014 Z" id="Stroke-308" stroke="#19191A" stroke-width="0.5" fill="#E2E4DF" fill-rule="evenodd"></path>
                            <path d="M50.8826639,15.3974849 C50.8698577,15.4839563 50.9294538,15.547092 51.0175589,15.5383256 L52.8046056,15.3605106 C52.8919124,15.3518234 52.962688,15.2734277 52.962688,15.1866374 L52.962688,14.4544718 C52.9397683,14.2815963 52.8324638,14.1414529 52.7222705,14.1414529 L51.227233,14.1414529 C51.1396665,14.1414529 51.0583054,14.211504 51.045492,14.2980233 L50.8826639,15.3974849 Z" id="Stroke-320" stroke="#19191A" stroke-width="0.5" fill="#E2E4DF" fill-rule="evenodd"></path>
                        </g>
                    </g>
                </g>
            </g>
        </g>
    </g>
</svg>