<svg xmlns="http://www.w3.org/2000/svg" xmlns:xlink="http://www.w3.org/1999/xlink" width="650" height="270" viewBox="0 0 650 270">
  <defs>
    <ellipse id="beetle2-a" cx="2.645" cy="11.566" rx="1.983" ry="5.952"/>
    <path id="beetle2-b" d="M3.62813738,206.39842 C3.62813738,206.39842 -0.950929347,205.920465 0.322324967,201.850729 C1.20719719,197.229309 21.3975403,165.971854 26.189646,157.041818 C27.7222206,154.188598 28.5737979,138.721422 41.7547332,120.365311 C56.7617992,99.4655092 84.3269855,75.4730657 86.4387384,73.6251528 C90.4057133,70.1528756 135.45997,35.7383092 147.761559,28.9815884 C156.19138,24.3518855 190.57183,1.36871715 271.233653,0.211291412 C351.895476,-0.946134331 383.79921,11.4548558 383.79921,11.4548558 C385.284084,11.9929445 390.40819,13.4390142 393.05284,14.7617865 C395.69749,16.0845587 395.69749,15.4231726 397.019815,17.407331 C398.34214,19.3914894 404.470946,28.5696396 406.27609,31.2964399 C410.049143,36.9984352 413.548877,42.5400043 418.838177,50.4766379 C425.869385,61.0270178 430.721396,68.9777377 431.400264,69.656836 C431.400264,69.656836 433.513339,72.6039726 435.69782,72.7150855 C440.254552,72.9505389 474.210535,71.9716875 491.896631,74.2865389 C508.933466,76.516733 542.806143,82.2231726 563.46747,93.6320835 C570.740258,97.4350538 589.583388,107.190499 597.186757,116.615252 C604.790125,126.040004 601.645637,126.866737 601.645637,126.866737 L513.053831,123.559806 L476.028732,158.171466 L445.615258,202.430103 L202.638045,208.547925 L177.844452,146.046935 L134.538309,120.583569 L84.2899604,124.882579 L54.5376486,145.385549 L34.0416116,170.848915 L10.7453191,207.213527 L3.62813738,206.39842 Z"/>
    <rect id="beetle2-d" width="6.612" height="13.228" x="364.962" y="167.992"/>
    <rect id="beetle2-e" width="6.612" height="13.228" x="364.301" y="78.705"/>
    <path id="beetle2-f" d="M7.14890021,0.47943049 C6.2274711,1.15938124 4.61743865,2.62780561 3.30581242,5.29108911 C1.3461184,9.27028731 -1.32694086,20.9863119 3.30581242,33.7306931 C19.8348745,33.7306931 21.1571995,33.7306931 21.1571995,33.7306931 L28.4299868,0 L8.59511229,0 C8.59511229,0 7.60417361,0.143470317 7.14890021,0.47943049 Z"/>
    <path id="beetle2-h" d="M7.14890021,0.47943049 C6.2274711,1.15938124 4.61743865,2.62780561 3.30581242,5.29108911 C1.3461184,9.27028731 -1.32694086,20.9863119 3.30581242,33.7306931 C19.8348745,33.7306931 21.1571995,33.7306931 21.1571995,33.7306931 L28.4299868,0 L8.59511229,0 C8.59511229,0 7.60417361,0.143470317 7.14890021,0.47943049 Z"/>
    <filter id="beetle2-i" width="226.4%" height="203.8%" x="-63.2%" y="-51.9%" filterUnits="objectBoundingBox">
      <feMorphology in="SourceAlpha" operator="dilate" radius="2" result="shadowSpreadOuter1"/>
      <feOffset in="shadowSpreadOuter1" result="shadowOffsetOuter1"/>
      <feGaussianBlur in="shadowOffsetOuter1" result="shadowBlurOuter1" stdDeviation="4.5"/>
      <feComposite in="shadowBlurOuter1" in2="SourceAlpha" operator="out" result="shadowBlurOuter1"/>
      <feColorMatrix in="shadowBlurOuter1" values="0 0 0 0 0.998272747   0 0 0 0 0.668759191   0 0 0 0 0.0134119267  0 0 0 0.550498188 0"/>
    </filter>
    <path id="beetle2-k" d="M7.27278732,0.211291412 C9.09251913,0.608106948 12.2805492,2.29356961 13.8844122,5.50238052 C14.5455746,6.8251528 15.3224964,9.93483505 15.8678996,12.777628 C16.4133028,15.620421 16.5290621,19.2468966 16.5290621,22.6984201 C16.5290621,25.6117178 16.039837,33.3962969 14.5455746,35.2647568 C11.2397622,29.3122815 8.59511229,19.3914894 8.59511229,19.3914894 L6.11421799,10.7054221 L0.661162483,0.211291412 C0.661162483,0.211291412 5.45305551,-0.185524124 7.27278732,0.211291412 Z"/>
    <path id="beetle2-m" d="M11.6766187,3.96844291 L11.676379,3.96831683 C11.6703839,3.96835786 11.6643791,3.96831683 11.6583649,3.96831683 L1.31538949,3.96831683 C0.591167796,3.96831683 0,4.56609065 0,5.30348203 L0,7.92424075 C0,8.67295065 0.588919933,9.25940594 1.31538949,9.25940594 L11.6583649,9.25940594 C11.6643789,9.25940594 11.6703836,9.25936476 11.676379,9.25928265 L11.6766554,9.25927884 C11.995357,9.25484727 12.2873767,9.13478211 12.513304,8.93846158 C13.6606404,8.54695393 15.9139678,7.93663366 18.8119439,7.93663366 C23.0783131,7.93663366 33.3302729,7.74307621 33.3302729,7.74307621 C33.9158182,7.73242093 34.3804491,7.25015823 34.3804491,6.66587351 L34.3804491,6.56184927 C34.3804491,5.97469324 33.9055512,5.5122242 33.3197348,5.52248253 C33.3197348,5.52248253 23.4400813,5.71672726 18.8119439,5.50390818 C15.8005153,5.36543143 13.6869576,4.75702018 12.577806,4.3488554 C12.3446978,4.11758006 12.0272247,3.97329078 11.6766188,3.96844296 L11.6766187,3.96844291 Z"/>
    <rect id="beetle2-o" width="43.637" height="14.55" x="-2.645"/>
    <path id="beetle2-p" d="M1.63676693,12.1143814 C1.82105152,11.3845968 2.57081973,10.7929894 3.30806376,10.7929894 L246.488391,10.7929894 C247.227139,10.7929894 247.973871,11.3785282 248.159688,12.1143814 L248.494411,13.4399142 C248.678695,14.1696989 248.222817,14.7613062 247.479563,14.7613062 L2.31689175,14.7613062 C1.57212252,14.7613062 1.11622752,14.1757674 1.30204454,13.4399142 L1.63676693,12.1143814 Z"/>
    <path id="beetle2-q" d="M31.0090674,15.3936525 C30.4477513,16.7543569 28.8143475,17.7820672 27.3551527,17.6882575 L3.26448546,16.1265777 C1.12488634,15.9866783 -0.269513813,14.0984999 0.145913666,11.9162351 L1.53516467,4.61841838 C1.95119061,2.43300982 3.8989317,0.661386139 5.89909527,0.661386139 L34.2187802,0.661386139 C35.5526056,0.661386139 36.2418617,1.76323481 35.7509028,3.12515935 L31.0090674,15.3936525 Z"/>
    <rect id="beetle2-s" width="42.314" height="7.937" x="-3.756" y="4.969"/>
    <path id="beetle2-t" d="M0.268465086,3.37171408 C0.120195913,0.779020858 1.94041851,-0.490883031 4.31649024,0.527777897 L7.41646579,1.85678827 C8.43256423,2.29240634 9.3482785,3.53363629 9.44299983,4.64232753 C9.44299983,4.64232753 9.65295612,5.95247525 9.65295612,9.92079208 C9.65295612,13.8891089 9.42105719,15.863138 9.42105719,15.863138 C9.33005037,16.9645527 8.36448829,17.8574257 7.24970154,17.8574257 L3.99006068,17.8574257 C2.88186089,17.8574257 1.84071553,16.9762033 1.66568401,15.8826083 C1.66568401,15.8826083 0.874820077,11.0795976 0.661162483,9.01354223 C0.44750489,6.94748683 0.268465086,3.37171408 0.268465086,3.37171408 Z"/>
  </defs>
  <g fill="none" fill-rule="evenodd" transform="translate(0 1)">
    <g transform="translate(.08 .559)">
      <g transform="rotate(2 -5527.9 157.95)">
        <path fill="#000" d="M2.64464993,5.61386139 L38.564693,5.61386139 L76.2168364,0.0806409487 L79.5779811,16.0804362 C79.5779811,16.0804362 57.0345865,17.1610798 38.9795784,17.4986433 C20.9245703,17.8362068 2.64464993,17.5188119 2.64464993,17.5188119 L2.64464993,5.61386139 Z"/>
        <use fill="#000" xlink:href="#beetle2-a"/>
        <ellipse cx="2.645" cy="11.566" stroke="#E2E4DF" stroke-width=".5" rx="1.733" ry="5.702"/>
        <path stroke="#E2E4DF" stroke-linecap="round" stroke-width="1.5" d="M6.30084022,7.83906907 C7.32744994,7.83906907 37.0429587,7.50127127 37.0429587,7.50127127"/>
        <path fill="#E2E4DF" d="M16.9111702,10.7220693 L31.727803,10.7220693 L31.727803,6.75375243 L5.2583437,6.75375243 L5.2583437,6.75375243 C5.53076398,7.46548729 5.73781336,8.39677816 5.84888337,9.4557685 L16.9111702,9.4557685 L16.9111702,10.7220693 Z"/>
      </g>
      <g transform="translate(13.112)">
        <mask id="beetle2-c" fill="#fff">
          <use xlink:href="#beetle2-b"/>
        </mask>
        <use fill="#EA5871" stroke="#19191A" xlink:href="#beetle2-b"/>
        <g stroke="#19191A" mask="url(#beetle2-c)">
          <g transform="rotate(-47 144.852 7.726)">
            <path stroke-linecap="round" d="M23.0702588,4.28843539 C22.7027312,10.4911471 26.3191947,15.8077571 26.3191947,15.8077571" transform="rotate(61 24.682 10.048)"/>
            <path stroke-linecap="round" d="M19.3949262,4.28843539 C19.0273986,10.4911471 22.643862,15.8077571 22.643862,15.8077571" transform="rotate(61 21.006 10.048)"/>
            <path stroke-linecap="round" d="M15.7195936,4.28843539 C15.3520659,10.4911471 18.9685294,15.8077571 18.9685294,15.8077571" transform="rotate(61 17.33 10.048)"/>
            <path stroke-linecap="round" d="M12.0442609,4.28843539 C11.6767333,10.4911471 15.2931968,15.8077571 15.2931968,15.8077571" transform="rotate(61 13.656 10.048)"/>
            <path stroke-linecap="round" d="M8.36892831,4.28843539 C8.00140065,10.4911471 11.6178641,15.8077571 11.6178641,15.8077571" transform="rotate(61 9.98 10.048)"/>
            <path stroke-linecap="round" d="M4.69359567,4.28843539 C4.32606802,10.4911471 7.94253149,15.8077571 7.94253149,15.8077571" transform="rotate(61 6.305 10.048)"/>
            <path d="M25.8021563,-2.94704034 C25.8021563,-2.94704034 29.1079687,-0.301495781 30.4302937,6.3123656 C31.1635403,9.97983868 29.7691312,10.9420686 30.7839458,14.2489993 C31.8110453,17.5959621 32.3913201,17.5109926 34.3972686,21.5242468 C38.3642435,29.4608805 30.4302937,39.3816725 30.4302937,38.7202864" transform="rotate(47 30.655 17.902)"/>
          </g>
        </g>
        <g mask="url(#beetle2-c)">
          <g transform="translate(71.728 16.085)">
            <path fill="#F07D90" stroke="#F07D90" d="M515.706737,99.2079208 C515.706737,99.2079208 480.003963,73.4138614 367.606341,73.4138614 C368.928666,70.1069307 370.250991,67.4613861 370.250991,67.4613861 C370.250991,67.4613861 413.887715,68.1227723 446.284676,74.7366337 C494.549538,82.6732673 515.706737,99.2079208 515.706737,99.2079208 Z"/>
            <path fill="#F07D90" d="M33.0581242,93.9168317 C33.0581242,93.9168317 58.843461,77.3821782 178.513871,76.0594059 C298.18428,74.7366337 321.324967,76.0594059 321.324967,76.0594059 C321.324967,76.0594059 374.217966,75.3980198 409.92074,77.3821782 C445.623514,79.3663366 482.074061,85.5639292 497.85535,95.239604 C469.425363,97.2237624 450.251651,95.9009901 450.251651,95.9009901 C450.251651,95.9009901 421.160502,89.2871287 232.729194,89.9485149 C113.719947,85.980198 63.4715984,105.160396 63.4715984,105.160396 L31.0746367,95.9009901"/>
            <path stroke="#1A1A19" d="M0.882651915,105.823105 C0.882651915,105.823105 49.9184287,39.0217822 108.431308,15.8732673 C121.985139,9.59009901 162.977213,1.32277228 199.671731,0.992079208 C223.321513,0.779112871 287.825847,2.20638416 310.663722,9.92079208 C329.428836,15.8322614 337.641796,30.6261465 342.813409,39.3326337 C357.358983,63.8237624 366.284677,77.0514851 367.607002,79.3663366 C367.772293,83.5 368.433455,186.345545 368.433455,186.345545"/>
            <path stroke="#E2E4DF" stroke-linecap="round" stroke-linejoin="round" stroke-width="1.5" d="M468.103038,89.2871287 C429.755614,80.0273259 373.734588,80.0273259 373.734588,80.0273259 C373.734588,80.0273259 277.297199,79.9056309 200.171546,79.2442448 C159.890861,78.8990012 118.319164,80.9483001 86.6122853,84.9082926 C67.4385733,87.3029703 54.2153236,91.2712871 54.2153236,91.2712871"/>
            <path stroke="#1A1A19" d="M199.67107,0.992079208 L200.993395,193.94884"/>
            <path stroke="#19191A" d="M407.937252 85.980198C407.937252 85.980198 403.309115 85.980198 403.309115 89.9485149L403.309115 101.192079C403.309115 101.192079 403.970277 105.821782 409.259577 105.160396 414.548877 104.49901 426.449802 101.192079 426.449802 101.192079 426.449802 101.192079 429.755614 100.171393 429.755614 97.8851485 429.755614 95.5989037 429.094452 89.9485149 429.094452 89.9485149 429.094452 89.9485149 429.094452 87.3029703 425.788639 86.6415842 417.193527 85.980198 407.937252 85.980198 407.937252 85.980198zM374.217966 56.8792079C374.217966 56.8792079 368.928666 67.4613861 381.490753 76.390099"/>
            <g>
              <use fill="#CC455C" xlink:href="#beetle2-d"/>
              <rect width="5.612" height="12.228" x="365.462" y="168.492" stroke="#19191A"/>
            </g>
            <g>
              <use fill="#CC455C" xlink:href="#beetle2-e"/>
              <rect width="5.612" height="12.228" x="364.801" y="79.205" stroke="#19191A"/>
            </g>
            <path stroke="#19191A" d="M33.0581242,93.9168317 C33.0581242,93.9168317 58.843461,77.3821782 178.513871,76.0594059 C298.18428,74.7366337 321.324967,76.0594059 321.324967,76.0594059 C321.324967,76.0594059 374.217966,75.3980198 409.92074,77.3821782 C445.623514,79.3663366 478.020476,85.5965941 497.85535,95.239604"/>
          </g>
        </g>
        <g mask="url(#beetle2-c)">
          <g transform="translate(83.629 10.793)">
            <g transform="translate(62.15 13.228)">
              <path fill="#AEBEC3" d="M104.463011,1.32409505 C104.463011,1.32409505 25.1235132,6.39428119 2.64398877,40.1249743 C-2.20497688,53.3540198 0.218844782,58.203303 6.16930713,62.1716198 C12.1197695,66.1399366 24.1132569,64.8171644 59.8795026,63.715295 C95.6470707,62.6134257 107.106339,62.3925228 107.106339,62.3925228 C107.106339,62.3925228 120.330911,63.4943921 118.787758,51.5894416 C118.566929,37.4807525 118.912056,9.92211485 118.912056,9.92211485 C118.912056,9.92211485 119.228092,4.85192871 115.040289,2.42728713 C110.853808,0.00132277228 105.577731,1.24208317 104.463011,1.32409505"/>
              <path stroke="#19191A" stroke-width="3" d="M104.463011,1.32409505 C104.463011,1.32409505 19.8348745,5.95247525 2.64398877,40.1249743 C-2.20497688,53.3540198 0.218844782,58.203303 6.16930713,62.1716198 C12.1197695,66.1399366 24.1132569,64.8171644 59.8795026,63.715295 C95.6470707,62.6134257 107.106339,62.3925228 107.106339,62.3925228 C107.106339,62.3925228 120.330911,63.4943921 118.787758,51.5894416 C118.566929,37.4807525 118.912056,9.92211485 118.912056,9.92211485 C118.912056,9.92211485 118.344118,4.19318812 115.040289,2.42728713 C111.73646,0.661386139 104.463011,1.32409505 104.463011,1.32409505 Z"/>
            </g>
            <g transform="translate(194.382 13.228)">
              <path fill="#AEBEC3" d="M0.220167107,37.2578653 L0.220167107,54.6748079 C0.220167107,54.6748079 0.440995376,62.6114416 11.2391011,62.1696356 C22.9205198,62.1696356 122.976883,60.8468634 128.927345,60.1854772 C134.877808,59.5240911 141.489433,59.1021267 139.285117,49.7223485 C134.216645,40.564796 123.858874,23.8092396 119.009908,18.7390535 C114.160943,13.6675446 104.243505,5.29042772 68.3199029,2.4239802 C32.3976229,-0.441144554 9.4777642,0.934538614 9.4777642,0.934538614 C9.4777642,0.934538614 -0.221489432,0.660724752 0.220167107,10.1410337 C0.661823646,19.6200198 0.220167107,37.2578653 0.220167107,37.2578653"/>
              <path stroke="#1A1A19" stroke-width="3" d="M0.220167107,37.2578653 L0.220167107,54.6748079 C0.220167107,54.6748079 0.440995376,62.6114416 11.2391011,62.1696356 C22.9205198,62.1696356 122.976883,60.8468634 128.927345,60.1854772 C134.877808,59.5240911 141.489433,59.1021267 139.285117,49.7223485 C134.216645,40.564796 123.858874,23.8092396 119.009908,18.7390535 C114.160943,13.6675446 104.243505,5.29042772 68.3199029,2.4239802 C32.3976229,-0.441144554 9.4777642,0.934538614 9.4777642,0.934538614 C9.4777642,0.934538614 -0.221489432,0.660724752 0.220167107,10.1410337 C0.661823646,19.6200198 0.220167107,37.2578653 0.220167107,37.2578653 Z"/>
              <g transform="translate(89.918 5.291)">
                <path fill="#A84D5A" d="M0,0 L11.2397622,56.5485149"/>
                <path stroke="#1A1A19" stroke-width="3" d="M0,0 L11.2397622,56.5485149"/>
              </g>
            </g>
            <path stroke="#19191A" stroke-width="3" d="M308.101717,0 C308.101717,0 328.597754,30.8581639 347.110304,59.5247525 C351.077279,64.8158416 354.383091,58.8633663 354.383091,58.8633663"/>
            <path fill="#ADBEC3" fill-opacity=".999" stroke="#19191A" stroke-width="3" d="M66.1162483,3.96831683 C66.1162483,3.96831683 65.4550859,20.5029703 54.2153236,31.0851485 C42.9755614,41.6673267 17.8513871,62.8316832 17.8513871,62.8316832 C17.8513871,62.8316832 9.25627477,70.7683168 5.28929987,66.1386139 C1.98348745,62.170297 0.661162483,19.8415842 0.661162483,19.8415842 L61.488111,5.95247525"/>
            <g stroke-linecap="round" stroke-opacity=".5" transform="translate(108.43 22.164)">
              <g stroke="#191A1B" stroke-width="2" transform="rotate(-45 40.468 15.654)">
                <path d="M0.661162483,8.14792508 L29.0911493,8.14792508" transform="rotate(-5 14.876 9.47)"/>
                <path d="M3.30581242,14.7617865 L22.4795244,14.7617865" transform="rotate(-5 12.893 16.085)"/>
                <path d="M5.8754689,2.46139484 L19.4143494,1.52029675"/>
              </g>
              <g stroke="#191A1B" stroke-width="2" transform="rotate(-45 88 -130.98)">
                <path d="M0.5383665,8.09150869 L32.9353282,8.09150869" transform="rotate(-5 16.737 8.092)"/>
                <path d="M3.20314382,15.1665189 L15.765231,15.1665189" transform="rotate(-5 9.484 15.167)"/>
                <path d="M5.8754689,2.5728757 L23.3673196,1.35700359"/>
              </g>
            </g>
          </g>
        </g>
      </g>
      <g transform="translate(42.526 129.843)">
        <mask id="beetle2-g" fill="#fff">
          <use xlink:href="#beetle2-f"/>
        </mask>
        <use fill="#D42929" xlink:href="#beetle2-f"/>
        <path stroke="#19191A" d="M6.85201694,0.0771118061 C5.40239712,1.14683065 3.98625863,2.77772578 2.85725854,5.07018321 C-0.25621344,11.3921508 -1.04409181,23.2279345 2.83589715,33.9015136 L2.95555831,34.2306931 L3.30581242,34.2306931 C20.496037,34.2306931 20.496037,34.2306931 21.1571995,34.2306931 L21.5608831,34.2306931 L21.6459673,33.8360779 L28.9187547,0.105384871 L29.0492837,-0.5 L28.4299868,-0.5 L8.59511229,-0.5 C8.46238653,-0.485996964 8.36183131,-0.468897289 8.23433379,-0.442920132 C8.02190619,-0.399638779 7.80899127,-0.346214659 7.60694176,-0.28122045 C7.30365636,-0.183661225 7.04944449,-0.0685760231 6.85201694,0.0771118061 L6.85201694,0.0771118061 Z"/>
        <rect width="31.736" height="14.55" x="-2.645" y="9.259" fill="#C4090F" mask="url(#beetle2-g)"/>
        <rect width="23.802" height="9.259" y="23.81" fill="#B1BAB4" mask="url(#beetle2-g)"/>
        <rect width="30.413" height="14.55" x="-1.322" y="-5.291" fill="#EB640F" mask="url(#beetle2-g)"/>
        <g stroke-linecap="square" stroke-opacity=".646" mask="url(#beetle2-g)">
          <g transform="translate(-1.322)">
            <g transform="translate(0 23.81)">
              <path stroke="#7C7A79" d="M.661162483 7.27524752L19.173712 7.27524752M.661162483 4.62970297L19.173712 4.62970297M.661162483 1.98415842L19.173712 1.98415842"/>
            </g>
            <g transform="translate(0 7.937)">
              <path stroke="#940503" d="M.661162483 4.62970297L19.173712 4.62970297M.661162483 12.5663366L19.173712 12.5663366M.661162483 15.2118812L19.173712 15.2118812M.661162483 9.92079208L19.173712 9.92079208M.661162483 1.98415842L19.173712 1.98415842M.661162483 7.27524752L19.173712 7.27524752"/>
            </g>
            <path stroke="#BC2900" d="M.661162483 7.27524752L19.173712 7.27524752M4.62813738 4.62970297L23.1406869 4.62970297M4.62813738 1.98415842L23.1406869 1.98415842"/>
          </g>
        </g>
      </g>
      <g transform="translate(42.526 129.843)">
        <mask id="beetle2-j" fill="#fff">
          <use xlink:href="#beetle2-h"/>
        </mask>
        <use fill="#000" filter="url(#beetle2-i)" xlink:href="#beetle2-h"/>
        <use fill="#ECF0EE" xlink:href="#beetle2-h"/>
        <path stroke="#D23502" stroke-opacity=".811" d="M6.85201694,0.0771118061 C5.40239712,1.14683065 3.98625863,2.77772578 2.85725854,5.07018321 C-0.25621344,11.3921508 -1.04409181,23.2279345 2.83589715,33.9015136 L2.95555831,34.2306931 L3.30581242,34.2306931 C20.496037,34.2306931 20.496037,34.2306931 21.1571995,34.2306931 L21.5608831,34.2306931 L21.6459673,33.8360779 L28.9187547,0.105384871 L29.0492837,-0.5 L28.4299868,-0.5 L8.59511229,-0.5 C8.46238653,-0.485996964 8.36183131,-0.468897289 8.23433379,-0.442920132 C8.02190619,-0.399638779 7.80899127,-0.346214659 7.60694176,-0.28122045 C7.30365636,-0.183661225 7.04944449,-0.0685760231 6.85201694,0.0771118061 L6.85201694,0.0771118061 Z"/>
        <rect width="31.736" height="14.55" x="-2.645" y="9.259" fill="#FF3312" mask="url(#beetle2-j)"/>
        <rect width="23.802" height="9.259" y="23.81" fill="#EDF0EE" mask="url(#beetle2-j)"/>
        <rect width="30.413" height="14.55" x="-1.322" y="-5.291" fill="#FDB427" mask="url(#beetle2-j)"/>
        <g stroke-linecap="square" mask="url(#beetle2-j)">
          <g transform="translate(-1.322)">
            <g stroke-opacity=".646" transform="translate(0 23.81)">
              <path stroke="#B1AFA7" d="M.661162483 7.27524752L19.173712 7.27524752M.661162483 4.62970297L19.173712 4.62970297M.661162483 1.98415842L19.173712 1.98415842"/>
            </g>
            <g stroke-opacity=".646" transform="translate(0 7.937)">
              <path stroke="#D60401" d="M.661162483 4.62970297L19.173712 4.62970297M.661162483 12.5663366L19.173712 12.5663366M.661162483 15.2118812L19.173712 15.2118812M.661162483 9.92079208L19.173712 9.92079208M.661162483 1.98415842L19.173712 1.98415842M.661162483 7.27524752L19.173712 7.27524752"/>
            </g>
            <g stroke-opacity=".505">
              <path stroke="#FE4F1E" d="M.661162483 7.27524752L19.173712 7.27524752M4.62813738 4.62970297L23.1406869 4.62970297M4.62813738 1.98415842L23.1406869 1.98415842"/>
            </g>
          </g>
        </g>
      </g>
      <g transform="translate(625.671 126.986)">
        <mask id="beetle2-l" fill="#fff">
          <use xlink:href="#beetle2-k"/>
        </mask>
        <use fill="#E2E4DF" stroke="#19191A" xlink:href="#beetle2-k"/>
        <path fill="#B1BAB4" stroke="#B1BAB4" d="M6.61162483,1.53406369 C6.61162483,1.53406369 7.27278732,2.19544983 8.59511229,5.50238052 C9.91743725,8.80931121 10.5785997,14.1004003 10.5785997,14.1004003 C10.5785997,14.1004003 10.943433,18.7763101 11.2397622,22.037034 C7.9339498,12.777628 5.28929987,3.51822211 5.28929987,3.51822211 L2.64464993,1.26949309 L6.61162483,1.53406369 Z" mask="url(#beetle2-l)"/>
      </g>
      <path fill="#000" stroke="#000" d="M489.687704 216.74794L502.694825 152.991489 548.315036 120.583569 619.720584 135.134064 648.421482 196.47036C648.421482 196.47036 648.445783 197.243348 647.719385 197.146338 642.118127 196.398294 615.084779 193.509837 569.141654 199.949905 523.949619 206.284689 497.054131 215.126698 490.855809 217.306834 489.935605 217.630498 489.687704 216.74794 489.687704 216.74794zM207.155195 219.130103C160.873821 209.209311 101.369197 202.59545 24.0131866 206.563767 66.3275855 162.250895 92.7740849 135.79545 92.7740849 135.79545L183.353345 134.472678 209.138682 193.336044C209.138682 193.336044 209.799844 193.336044 207.155195 219.130103z"/>
      <g transform="translate(68.972 144.182)">
        <path fill="#1C1D1B" d="M123.192554,61.4992993 C123.192554,95.3477486 95.7630383,122.787969 61.9246104,122.787969 C28.0861826,122.787969 0.656666579,95.3477486 0.656666579,61.4992993 C0.656666579,27.6508501 28.0861826,0.210630026 61.9246104,0.210630026 C95.7630383,0.210630026 123.192554,27.6508501 123.192554,61.4992993"/>
        <path fill="#E2E4DF" d="M109.418556,61.4992993 C109.418556,87.7378102 88.1555708,109.009311 61.9246104,109.009311 C35.6936501,109.009311 14.4306646,87.7378102 14.4306646,61.4992993 C14.4306646,35.2607884 35.6936501,13.9892875 61.9246104,13.9892875 C88.1555708,13.9892875 109.418556,35.2607884 109.418556,61.4992993"/>
        <path fill="#E2E7E1" d="M92.9979248,61.4992993 C92.9979248,44.3323607 79.0857439,30.4154736 61.9246104,30.4154736 C44.763477,30.4154736 30.851296,44.3323607 30.851296,61.4992993 C30.851296,78.6662379 44.763477,92.5831251 61.9246104,92.5831251 C79.0857439,92.5831251 92.9979248,78.6662379 92.9979248,61.4992993"/>
        <path fill="#9B9B9B" fill-opacity=".319" stroke="#0B0C0A" stroke-width=".5" d="M98.8386342,61.4992993 C98.8386342,41.1055695 82.3114439,24.5727884 61.9246104,24.5727884 C41.5377769,24.5727884 25.0105867,41.1055695 25.0105867,61.4992993 C25.0105867,81.8930292 41.5377769,98.4258102 61.9246104,98.4258102 C82.3114439,98.4258102 98.8386342,81.8930292 98.8386342,61.4992993 Z"/>
        <path fill="#E2E4DF" stroke="#1A1918" d="M92.9979248,61.4992993 C92.9979248,44.3323607 79.0857439,30.4154736 61.9246104,30.4154736 C44.763477,30.4154736 30.851296,44.3323607 30.851296,61.4992993 C30.851296,78.6662379 44.763477,92.5831251 61.9246104,92.5831251 C79.0857439,92.5831251 92.9979248,78.6662379 92.9979248,61.4992993 Z"/>
        <path fill="#B1BAB4" d="M84.6223185,61.4992993 C84.6223185,74.0378577 74.4589288,84.2046855 61.9246104,84.2046855 C49.3889697,84.2046855 39.2269024,74.0378577 39.2269024,61.4992993 C39.2269024,48.9607409 49.3889697,38.7939132 61.9246104,38.7939132 C74.4589288,38.7939132 84.6223185,48.9607409 84.6223185,61.4992993"/>
        <path fill="#FBFBFA" d="M72.0577189 41.2042688L61.9247427 61.4995639 77.3523081 44.8789302C75.7787413 43.4172669 73.994925 42.179152 72.0577189 41.2042688M61.9246104 38.7939132C55.6581124 38.7939132 49.984016 41.3349587 45.87423 45.4434894L61.9246104 61.4992993 69.108802 39.9870538C66.8489486 39.2277825 64.4409948 38.7939132 61.9246104 38.7939132"/>
        <path fill="#777778" d="M69.8572379,61.5006221 C69.8572379,65.8829667 66.3054731,69.4346102 61.9246104,69.4346102 C57.5424255,69.4346102 53.991983,65.8829667 53.991983,61.5006221 C53.991983,57.1169548 57.5424255,53.5639884 61.9246104,53.5639884 C66.3054731,53.5639884 69.8572379,57.1169548 69.8572379,61.5006221"/>
        <path fill="#0B0B09" d="M66.2311584 34.2558783C66.0116524 35.082611 65.1865217 35.5892328 64.3534569 35.4741516 62.7468321 35.2492803 61.1018598 35.2492803 59.495235 35.4741516 58.6634926 35.5892328 57.8370395 35.082611 57.6175336 34.2558783 57.4006723 33.4344368 58.0195203 32.5666981 59.0416775 32.4211932 60.9471478 32.1513476 62.9015441 32.1513476 64.8083367 32.4211932 65.8291716 32.5666981 66.4480197 33.4344368 66.2311584 34.2558783M45.7118485 39.1891576C46.1402818 39.9285873 45.9154865 40.8704011 45.2437454 41.3796684 43.9505116 42.3571972 42.7868657 43.519914 41.8109898 44.814908 41.303217 45.4855536 40.3603993 45.7117476 39.622542 45.2805239 38.8873293 44.8545912 38.7114601 43.8029873 39.3303082 42.9789001 40.4886649 41.4391932 41.8718168 40.0568962 43.4096807 38.8981476 44.2348115 38.280413 45.2860598 38.4550189 45.7118485 39.1891576M34.6890798 57.1912946C35.5155329 57.4108748 36.024628 58.2376075 35.9082634 59.0722768 35.6834682 60.6781223 35.6834682 62.323651 35.9082634 63.9294966 36.0233057 64.7628431 35.5168552 65.5895758 34.6904021 65.8078332 33.8692383 66.0260906 33.0031155 65.4070332 32.8563374 64.385853 32.5865831 62.4770926 32.5879054 60.5233579 32.8563374 58.6145976 33.0031155 57.5947401 33.8705606 56.9743599 34.6890798 57.1912946M39.6220131 77.7175457C40.3611927 77.2889675 41.3040104 77.5138387 41.8117832 78.1858071 42.7889814 79.4808011 43.9499827 80.6448407 45.2458612 81.6197239 45.9162799 82.1276684 46.1437198 83.0708051 45.7113196 83.808912 45.2855309 84.5456962 44.2356049 84.7203021 43.4104741 84.1012447 41.8712878 82.9438189 40.4894583 81.5588764 39.3311016 80.0204922 38.7135758 79.1950823 38.8881227 78.1434783 39.6220131 77.7175457M57.6179303 88.7440431C57.8374362 87.9173104 58.6638893 87.4080431 59.4982764 87.5244471 61.1049012 87.7493183 62.7472288 87.7519639 64.3538536 87.5244471 65.1869184 87.4093659 66.0146938 87.9146649 66.2315551 88.7440431 66.451061 89.5654847 65.8308906 90.4305777 64.8100557 90.5787282 62.9032631 90.8485738 60.9475445 90.8459282 59.0407519 90.5774055 58.019917 90.4305777 57.401069 89.5628391 57.6179303 88.7440431M78.1372402 83.8107639C77.7088069 83.0700114 77.9336021 82.1268748 78.6053432 81.6189302 79.8998993 80.6414015 81.0635453 79.4813302 82.0380988 78.1836906 82.5458716 77.5130451 83.4886893 77.2842055 84.2265466 77.7180748 84.964404 78.1440075 85.1376285 79.1942886 84.5214251 80.0196985 83.3617461 81.5594055 81.9772719 82.9417025 80.4394079 84.100451 79.6142771 84.7195084 78.5630288 84.5435797 78.1372402 83.8107639M89.1601411 65.8073041C88.333688 65.5877239 87.8245929 64.7609912 87.9409575 63.9276447 88.1657527 62.3191536 88.1683974 60.6762704 87.9409575 59.0691021 87.8245929 58.2370783 88.3310433 57.4077001 89.1601411 57.1907655 89.9813049 56.9711853 90.8461054 57.5915655 90.9942058 58.6127457 91.2626378 60.5201833 91.2613155 62.4765635 90.9928835 64.3840011 90.8461054 65.4051813 89.9786602 66.0242387 89.1601411 65.8073041M84.2285301 45.2811853C83.4880281 45.7097635 82.5452104 45.4848922 82.0374376 44.8129239 81.0602395 43.5179298 79.9005605 42.3538902 78.6033597 41.3790071 77.932941 40.8723853 77.7041787 39.9279259 78.1379013 39.1898189 78.56369 38.4530348 79.613616 38.2784288 80.4387468 38.8961635 81.977933 40.054912 83.3597626 41.4398546 84.5181193 42.9782387 85.1369674 43.8036486 84.9610982 44.8552526 84.2285301 45.2811853"/>
        <g transform="translate(436.367)">
          <path fill="#1C1D1B" d="M123.192554,61.4992993 C123.192554,95.3477486 95.7630383,122.787969 61.9246104,122.787969 C28.0861826,122.787969 0.656666579,95.3477486 0.656666579,61.4992993 C0.656666579,27.6508501 28.0861826,0.210630026 61.9246104,0.210630026 C95.7630383,0.210630026 123.192554,27.6508501 123.192554,61.4992993"/>
          <path fill="#E2E4DF" d="M109.418556,61.4992993 C109.418556,87.7378102 88.1555708,109.009311 61.9246104,109.009311 C35.6936501,109.009311 14.4306646,87.7378102 14.4306646,61.4992993 C14.4306646,35.2607884 35.6936501,13.9892875 61.9246104,13.9892875 C88.1555708,13.9892875 109.418556,35.2607884 109.418556,61.4992993"/>
          <path fill="#E2E7E1" d="M92.9979248,61.4992993 C92.9979248,44.3323607 79.0857439,30.4154736 61.9246104,30.4154736 C44.763477,30.4154736 30.851296,44.3323607 30.851296,61.4992993 C30.851296,78.6662379 44.763477,92.5831251 61.9246104,92.5831251 C79.0857439,92.5831251 92.9979248,78.6662379 92.9979248,61.4992993"/>
          <path fill="#9B9B9B" fill-opacity=".319" stroke="#0B0C0A" stroke-width=".5" d="M98.8386342,61.4992993 C98.8386342,41.1055695 82.3114439,24.5727884 61.9246104,24.5727884 C41.5377769,24.5727884 25.0105867,41.1055695 25.0105867,61.4992993 C25.0105867,81.8930292 41.5377769,98.4258102 61.9246104,98.4258102 C82.3114439,98.4258102 98.8386342,81.8930292 98.8386342,61.4992993 Z"/>
          <path fill="#E2E4DF" stroke="#1A1918" d="M92.9979248,61.4992993 C92.9979248,44.3323607 79.0857439,30.4154736 61.9246104,30.4154736 C44.763477,30.4154736 30.851296,44.3323607 30.851296,61.4992993 C30.851296,78.6662379 44.763477,92.5831251 61.9246104,92.5831251 C79.0857439,92.5831251 92.9979248,78.6662379 92.9979248,61.4992993 Z"/>
          <path fill="#B1BAB4" d="M84.6223185,61.4992993 C84.6223185,74.0378577 74.4589288,84.2046855 61.9246104,84.2046855 C49.3889697,84.2046855 39.2269024,74.0378577 39.2269024,61.4992993 C39.2269024,48.9607409 49.3889697,38.7939132 61.9246104,38.7939132 C74.4589288,38.7939132 84.6223185,48.9607409 84.6223185,61.4992993"/>
          <path fill="#0B0B09" d="M66.2311584 34.2558783C66.0116524 35.082611 65.1865217 35.5892328 64.3534569 35.4741516 62.7468321 35.2492803 61.1018598 35.2492803 59.495235 35.4741516 58.6634926 35.5892328 57.8370395 35.082611 57.6175336 34.2558783 57.4006723 33.4344368 58.0195203 32.5666981 59.0416775 32.4211932 60.9471478 32.1513476 62.9015441 32.1513476 64.8083367 32.4211932 65.8291716 32.5666981 66.4480197 33.4344368 66.2311584 34.2558783M45.7118485 39.1891576C46.1402818 39.9285873 45.9154865 40.8704011 45.2437454 41.3796684 43.9505116 42.3571972 42.7868657 43.519914 41.8109898 44.814908 41.303217 45.4855536 40.3603993 45.7117476 39.622542 45.2805239 38.8873293 44.8545912 38.7114601 43.8029873 39.3303082 42.9789001 40.4886649 41.4391932 41.8718168 40.0568962 43.4096807 38.8981476 44.2348115 38.280413 45.2860598 38.4550189 45.7118485 39.1891576M34.6890798 57.1912946C35.5155329 57.4108748 36.024628 58.2376075 35.9082634 59.0722768 35.6834682 60.6781223 35.6834682 62.323651 35.9082634 63.9294966 36.0233057 64.7628431 35.5168552 65.5895758 34.6904021 65.8078332 33.8692383 66.0260906 33.0031155 65.4070332 32.8563374 64.385853 32.5865831 62.4770926 32.5879054 60.5233579 32.8563374 58.6145976 33.0031155 57.5947401 33.8705606 56.9743599 34.6890798 57.1912946M39.6220131 77.7175457C40.3611927 77.2889675 41.3040104 77.5138387 41.8117832 78.1858071 42.7889814 79.4808011 43.9499827 80.6448407 45.2458612 81.6197239 45.9162799 82.1276684 46.1437198 83.0708051 45.7113196 83.808912 45.2855309 84.5456962 44.2356049 84.7203021 43.4104741 84.1012447 41.8712878 82.9438189 40.4894583 81.5588764 39.3311016 80.0204922 38.7135758 79.1950823 38.8881227 78.1434783 39.6220131 77.7175457M57.6179303 88.7440431C57.8374362 87.9173104 58.6638893 87.4080431 59.4982764 87.5244471 61.1049012 87.7493183 62.7472288 87.7519639 64.3538536 87.5244471 65.1869184 87.4093659 66.0146938 87.9146649 66.2315551 88.7440431 66.451061 89.5654847 65.8308906 90.4305777 64.8100557 90.5787282 62.9032631 90.8485738 60.9475445 90.8459282 59.0407519 90.5774055 58.019917 90.4305777 57.401069 89.5628391 57.6179303 88.7440431M78.1372402 83.8107639C77.7088069 83.0700114 77.9336021 82.1268748 78.6053432 81.6189302 79.8998993 80.6414015 81.0635453 79.4813302 82.0380988 78.1836906 82.5458716 77.5130451 83.4886893 77.2842055 84.2265466 77.7180748 84.964404 78.1440075 85.1376285 79.1942886 84.5214251 80.0196985 83.3617461 81.5594055 81.9772719 82.9417025 80.4394079 84.100451 79.6142771 84.7195084 78.5630288 84.5435797 78.1372402 83.8107639M89.1601411 65.8073041C88.333688 65.5877239 87.8245929 64.7609912 87.9409575 63.9276447 88.1657527 62.3191536 88.1683974 60.6762704 87.9409575 59.0691021 87.8245929 58.2370783 88.3310433 57.4077001 89.1601411 57.1907655 89.9813049 56.9711853 90.8461054 57.5915655 90.9942058 58.6127457 91.2626378 60.5201833 91.2613155 62.4765635 90.9928835 64.3840011 90.8461054 65.4051813 89.9786602 66.0242387 89.1601411 65.8073041M84.2285301 45.2811853C83.4880281 45.7097635 82.5452104 45.4848922 82.0374376 44.8129239 81.0602395 43.5179298 79.9005605 42.3538902 78.6033597 41.3790071 77.932941 40.8723853 77.7041787 39.9279259 78.1379013 39.1898189 78.56369 38.4530348 79.613616 38.2784288 80.4387468 38.8961635 81.977933 40.054912 83.3597626 41.4398546 84.5181193 42.9782387 85.1369674 43.8036486 84.9610982 44.8552526 84.2285301 45.2811853"/>
          <path fill="#777778" d="M69.8572379,61.5006221 C69.8572379,65.8829667 66.3054731,69.4346102 61.9246104,69.4346102 C57.5424255,69.4346102 53.991983,65.8829667 53.991983,61.5006221 C53.991983,57.1169548 57.5424255,53.5639884 61.9246104,53.5639884 C66.3054731,53.5639884 69.8572379,57.1169548 69.8572379,61.5006221"/>
        </g>
      </g>
      <g transform="translate(288.478 99.42)">
        <rect width="15.868" height="13.228" x="11.901" y=".661" fill="#F07D90" rx="4"/>
        <path fill="#B0374B" d="M27.7688243,7.93663366 L27.7688243,4.66603593 C27.7688243,2.44533569 25.9761093,0.661386139 23.7646832,0.661386139 L15.9050658,0.661386139 C13.6903294,0.661386139 11.9009247,2.45432892 11.9009247,4.66603593 L11.9009247,7.93663366 L27.7688243,7.93663366 Z"/>
        <mask id="beetle2-n" fill="#fff">
          <use xlink:href="#beetle2-m"/>
        </mask>
        <path stroke="#19191A" d="M11.6834984,3.47089306 L11.6729569,3.46832854 C11.6707624,3.46833746 11.6707624,3.46833746 11.6655142,3.46832725 C11.6623195,3.46831987 11.6623195,3.46831987 11.6583649,3.46831683 L1.31538949,3.46831683 C0.312699308,3.46831683 -0.5,4.29226176 -0.5,5.30348203 L-0.5,7.92424075 C-0.5,8.94417613 0.307885746,9.75940594 1.31538949,9.75940594 L11.6583649,9.75940594 C11.670805,9.75937753 11.670805,9.75937753 11.6832256,9.75923578 L11.6835547,9.75923124 C12.0779227,9.75374753 12.4527463,9.61974352 12.7592039,9.38311996 C14.4491571,8.81679225 16.5037283,8.43663366 18.8119439,8.43663366 C20.2426437,8.43663366 22.4272008,8.41516163 25.163702,8.37707127 C25.9701234,8.36584639 26.8115583,8.35334747 27.67881,8.33979389 C29.0337996,8.31861785 30.3855216,8.29592978 31.6705685,8.27324165 C32.1203404,8.26530072 32.5296574,8.25792687 32.8905922,8.25130911 C33.2594911,8.24450167 33.2594911,8.24450167 33.3397112,8.24298712 C34.1967356,8.2273918 34.8804491,7.52352162 34.8804491,6.66587351 L34.8804491,6.56184927 C34.8804491,5.69558323 34.1767864,5.0073979 33.3109806,5.02255917 C33.1814927,5.02510389 32.9401602,5.02952932 32.6018545,5.03522203 C32.0378026,5.04471339 31.4086565,5.05420552 30.7303666,5.0630651 C28.7429953,5.08902344 26.7528738,5.10431011 24.8961031,5.10353481 C22.3667435,5.10247867 20.2924944,5.07146109 18.8349115,5.00443597 C16.4143122,4.89312776 14.4091277,4.47734322 12.8435277,3.91349277 C12.5239498,3.63478805 12.1161275,3.47447224 11.6835316,3.46849075 L11.6834984,3.47089306 Z"/>
        <g mask="url(#beetle2-n)">
          <use fill="#D8D8D8" xlink:href="#beetle2-o"/>
          <rect width="42.637" height="13.55" x="-2.145" y=".5" stroke="#979797"/>
        </g>
        <rect width="51.571" height="9.259" x="-2.645" y="-2.513" fill="#FFF" mask="url(#beetle2-n)"/>
      </g>
      <path fill="#EA5871" stroke="#19191A" d="M44.2152411,90.1965347 C43.0582067,96.0656752 46.7871631,78.0243842 46.7871631,78.0243842 C46.7871631,78.0243842 42.9762226,99.8686455 39.8343785,104.003632 C36.695179,108.137295 35.2895476,109.376733 27.3555978,109.04604 C19.421648,108.715347 0.88397424,108.467988 0.88397424,108.467988 L0.88397424,108.027505 C0.88397424,108.027505 5.5107893,13.8910931 89.2589188,1.10385347 C103.803171,-3.30494653 161.98547,8.38042376 169.698591,15.6556713 C174.987891,19.4030851 176.089388,24.2536911 177.853369,30.2061663 C179.616028,36.1586416 182.03985,50.0464277 185.345662,55.5584198 C188.651475,61.0704119 192.619772,79.8101267 192.839278,87.7467604 C193.060106,95.6833941 168.154116,58.6457703 165.510788,55.3388396 C162.866138,52.0319089 143.47292,23.8118851 109.532805,23.150499 C84.1878025,23.8118851 65.675253,42.5502772 62.3694406,46.9604 C59.0636281,51.3705228 51.3505066,59.5280594 46.501541,79.1487406" transform="translate(456.413 108.679)"/>
      <g transform="translate(0 109)">
        <path fill="#EA5871" stroke="#19191A" d="M201.455047,110.114062 C201.455047,106.738123 204.955081,58.9770083 175.863931,27.4500539 C144.568466,-2.53322535 115.380601,1.08879177 111.510342,0.333222178 C104.603893,-0.0122170846 94.1817921,0.880093884 85.3209524,3.04582302 C76.4601126,5.21155216 70.4921148,7.55147832 67.4385733,8.92079208 C66.1999395,9.75283907 56.8599736,13.550495 50.2483487,18.180198 C49.536947,18.7336977 47.3433983,20.4036764 46.9425363,20.8257426 C41.3412699,26.7232962 38.1302571,32.2392192 34.3804491,38.0217822 C26.9087965,51.3852317 29.1260566,51.0388886 17.6318811,69.9930558 C6.13770563,88.9472231 0.441656539,97.107242 0.441656539,97.107242 C0.441656539,97.107242 35.7027741,103.285911 53.1138269,69.9930558 C70.5248798,36.7002004 96.0827768,30.9686281 113.496474,30.9686281 C130.910172,30.9686281 156.035668,39.1671707 171.68274,68.3581093 C177.633202,80.7921687 179.61669,101.516042 179.61669,101.516042 C179.61669,101.516042 180.712406,110.114062 189.534127,110.114062 C198.355847,110.114062 197.250466,110.114062 201.455047,110.114062 Z" transform="translate(17.402 .679)"/>
        <g transform="translate(216.75 93.384)">
          <path fill="#1D1E1C" stroke="#19191A" d="M2.30581242,5.50238052 L241.976948,0.0459448773 C241.976948,0.0459448773 248.719262,2.60171143 249.910898,14.7617865 C233.051255,15.0924795 0.0860110324,17.3705156 0.0860110324,17.3705156 C0.0860110324,17.3705156 0.187380671,11.1357886 2.30581242,5.50238052 Z"/>
          <g transform="rotate(-.5 124.898 12.777)">
            <use fill="#E2E4DF" xlink:href="#beetle2-p"/>
            <path stroke="#E2E4DF" d="M2.12154947,12.2367983 C2.24998836,11.728168 2.80074421,11.2929894 3.30806376,11.2929894 L246.488391,11.2929894 C246.999019,11.2929894 247.545381,11.7238663 247.674906,12.2367983 L248.009628,13.5623311 C248.1144,13.9772378 247.896007,14.2613062 247.479563,14.2613062 L2.31689175,14.2613062 C1.89692735,14.2613062 1.68101459,13.9813587 1.78682708,13.5623311 L2.12154947,12.2367983 L2.12154947,12.2367983 Z"/>
          </g>
        </g>
        <g transform="translate(0 71.108)">
          <mask id="beetle2-r" fill="#fff">
            <use xlink:href="#beetle2-q"/>
          </mask>
          <use fill="#E2E4DF" stroke="#19191A" xlink:href="#beetle2-q"/>
          <g mask="url(#beetle2-r)" transform="rotate(2 17.402 8.937)">
            <use fill="#19191A" xlink:href="#beetle2-s"/>
            <rect width="41.314" height="6.937" x="-3.256" y="5.469" stroke="#19191A"/>
          </g>
        </g>
        <path fill="#F07D90" d="M191.323452,49.1740699 C191.323452,49.1740699 180.527909,16.7170618 134.79406,9.91201852 C63.6571089,3.52292508 44.3817787,71.266017 43.4451652,74.0768081 C47.4121401,76.0609665 56.8776108,74.0768081 56.8776108,74.0768081 C56.8776108,74.0768081 64.4948627,53.7857129 81.0565294,38.3412883 C97.6181961,22.8968637 117.384309,19.5021175 131.746514,19.5021175 C179.290812,22.7186243 191.323452,49.1740699 191.323452,49.1740699 Z"/>
      </g>
      <g transform="translate(94.526 12.116)">
        <path fill="#F07D90" d="M529.161823,137.568317 C529.161823,137.568317 506.021136,108.467327 464.3679,111.774257 C422.714663,115.081188 400.235139,145.50495 391.640026,185.188119 C383.044914,184.526733 375.772127,183.865347 375.772127,183.865347 C375.772127,183.865347 386.350727,107.144554 463.045575,101.853465 C505.992727,101.853465 529.161823,137.568317 529.161823,137.568317 Z"/>
        <path stroke="#F07D90" stroke-linecap="round" stroke-width="2" d="M310.317041,12.5663366 C310.317041,12.5663366 303.044254,9.25940594 288.498679,6.61386139 C255.440555,0.661386139 131.142008,-11.2435644 69.653897,29.7623762 C28.661823,56.8792079 0.892998679,89.9485149 0.892998679,89.9485149"/>
      </g>
      <g transform="translate(424.678 62.382)">
        <ellipse cx="13.62" cy="19.842" fill="#19191A" stroke="#19191A" rx="2.645" ry="2.646"/>
        <path fill="#B1BAB4" stroke="#19191A" d="M13.2161347,11.184249 C14.1724477,11.7327712 14.9476926,13.0645082 14.9476926,14.1848721 L14.9476926,20.4388555 C14.9476926,20.9856569 14.4990637,21.428927 13.9478638,21.428927 L13.3028714,21.428927 C12.7506812,21.428927 12.3030426,20.9821204 12.3030426,20.4233221 L12.3030426,14.7424533 C12.3030426,14.1870731 11.9208351,13.5161061 11.4345118,13.2352323 L5.553781,9.83884222 L6.87610597,7.54773343 L13.2161347,11.184249 Z"/>
        <mask id="beetle2-u" fill="#fff">
          <use xlink:href="#beetle2-t"/>
        </mask>
        <use fill="#B1BAB4" xlink:href="#beetle2-t"/>
        <path stroke="#19191A" d="M-0.230909333,3.39671788 C-0.228107726,3.45266552 -0.228107726,3.45266552 -0.215017371,3.70210797 C-0.202132111,3.94446629 -0.187262802,4.21446717 -0.170604562,4.50521712 C-0.122999409,5.33610899 -0.0705874977,6.16708012 -0.0149086521,6.9431823 C0.044634179,7.7731442 0.104468546,8.49110001 0.163814806,9.06497459 C0.235276749,9.75600704 0.373315953,10.7822922 0.561941028,12.057841 C0.588051536,12.2344094 0.614987296,12.4147491 0.642678673,12.5984772 C0.758547946,13.3672524 0.882655318,14.1628002 1.0067591,14.9397349 C1.05019373,15.2116514 1.09052885,15.46184 1.12673298,15.6846173 C1.16399026,15.9132108 1.16399026,15.9132108 1.17232745,15.9638444 C1.38568497,17.2969316 2.63535805,18.3574257 3.99006068,18.3574257 L7.24970154,18.3574257 C8.62234536,18.3574257 9.80673628,17.2673344 9.91935906,15.9043113 C9.92545627,15.8549592 9.9386351,15.7266664 9.95536686,15.5365183 C9.9829697,15.2228258 10.0105016,14.8471213 10.0361507,14.4093273 C10.1091898,13.1626543 10.1529561,11.6666827 10.1529561,9.92079208 C10.1529561,8.17448279 10.1132853,6.80222411 10.0469656,5.76163897 C10.0066371,5.12886726 9.96560792,4.7435947 9.93670058,4.56321006 C9.83123952,3.31287895 8.80467934,1.90792584 7.61348173,1.39723988 L4.51350618,0.0682295079 C1.79341107,-1.09791988 -0.400022921,0.439751506 -0.230719317,3.4002611 L-0.230909333,3.39671788 Z"/>
        <path fill="#D8D8D8" d="M1.21514433,0.0542543317 C1.21514433,0.0542543317 3.59571667,6.64098855 10.8233073,10.9974822 C6.58450684,13.1960744 4.37955579,12.856339 2.23981705,17.524795 C-3.61801465,18.6639587 -4.98354347,5.06310975 -3.18313578,0.0542543317 C-1.3827281,-4.95460109 1.21514433,0.0542543317 1.21514433,0.0542543317 Z" mask="url(#beetle2-u)"/>
      </g>
    </g>
    <g transform="translate(92.853 160.826)">
      <g transform="translate(0 .794)">
        <path fill="#B1BAB4" d="M2.11470306,24.3355421 C1.74206816,24.3355421 1.36545697,24.2366243 1.02292825,24.0290686 C0.0220399911,23.4206957 -0.299471219,22.1113218 0.304924413,21.1044191 C10.245074,4.53197697 30.1764968,-3.53868339 48.7758635,1.47467474 C52.176157,2.39409535 55.4475052,3.71547658 58.4990215,5.40508348 C59.5231994,5.97171645 59.8969704,7.26622407 59.3346098,8.29714158 C58.7716811,9.32805909 57.4839322,9.70428966 56.4603223,9.13765669 C53.7058914,7.6138657 50.7515102,6.41999118 47.6795444,5.58976809 C30.8927966,1.06528099 12.8995296,8.34802991 3.928458,23.3063399 C3.53082929,23.9690318 2.83157081,24.3355421 2.11470306,24.3355421"/>
        <path fill="#0C0D18" fill-opacity=".5" d="M38.7555634,89.4421474 C28.5722922,89.4421474 18.6684973,85.8250735 10.8698623,79.2564766 C9.97349359,78.5011565 9.85477302,77.1586195 10.6045871,76.2557804 C11.3544013,75.3523697 12.6887296,75.2322961 13.5850983,75.9893314 C20.6248305,81.9169642 29.5635238,85.1818222 38.7555634,85.1818222 C56.1364821,85.1818222 71.6422975,73.4580659 76.4621254,56.6717785 C76.7870449,55.5419432 77.9572093,54.8883998 79.0830666,55.2171727 C80.2055156,55.5436585 80.8530824,56.7249539 80.528731,57.8547892 C75.1880094,76.4524724 58.0104494,89.4421474 38.7555634,89.4421474"/>
      </g>
      <g transform="translate(435.507)">
        <g transform="translate(.86 .794)">
          <path fill="#B1BAB4" d="M2.11470306,24.3355421 C1.74206816,24.3355421 1.36545697,24.2366243 1.02292825,24.0290686 C0.0220399911,23.4206957 -0.299471219,22.1113218 0.304924413,21.1044191 C10.245074,4.53197697 30.1764968,-3.53868339 48.7758635,1.47467474 C52.176157,2.39409535 55.4475052,3.71547658 58.4990215,5.40508348 C59.5231994,5.97171645 59.8969704,7.26622407 59.3346098,8.29714158 C58.7716811,9.32805909 57.4839322,9.70428966 56.4603223,9.13765669 C53.7058914,7.6138657 50.7515102,6.41999118 47.6795444,5.58976809 C30.8927966,1.06528099 12.8995296,8.34802991 3.928458,23.3063399 C3.53082929,23.9690318 2.83157081,24.3355421 2.11470306,24.3355421"/>
          <path fill="#0C0D18" fill-opacity=".5" d="M38.7555634,89.4421474 C28.5722922,89.4421474 18.6684973,85.8250735 10.8698623,79.2564766 C9.97349359,78.5011565 9.85477302,77.1586195 10.6045871,76.2557804 C11.3544013,75.3523697 12.6887296,75.2322961 13.5850983,75.9893314 C20.6248305,81.9169642 29.5635238,85.1818222 38.7555634,85.1818222 C56.1364821,85.1818222 71.6422975,73.4580659 76.4621254,56.6717785 C76.7870449,55.5419432 77.9572093,54.8883998 79.0830666,55.2171727 C80.2055156,55.5436585 80.8530824,56.7249539 80.528731,57.8547892 C75.1880094,76.4524724 58.0104494,89.4421474 38.7555634,89.4421474"/>
        </g>
        <g transform="translate(22.609 22.706)">
          <path fill="#FBFBFA" d="M26.5072194 2.41391942L16.3742432 22.7092145 31.8018086 6.08858081C30.2282419 4.62691744 28.4444255 3.38880259 26.5072194 2.41391942M16.374111.00356377654C10.107613.00356377654 4.43351654 2.54460932.323730542 6.65314001L16.374111 22.7089499 23.5583025 1.19670437C21.2984492.437433083 18.8904954.00356377654 16.374111.00356377654"/>
          <path fill="#777778" d="M24.3067385,22.7102727 C24.3067385,27.0926172 20.7549736,30.6442608 16.374111,30.6442608 C11.9919261,30.6442608 8.44148351,27.0926172 8.44148351,22.7102727 C8.44148351,18.3266054 11.9919261,14.773639 16.374111,14.773639 C20.7549736,14.773639 24.3067385,18.3266054 24.3067385,22.7102727"/>
        </g>
      </g>
    </g>
  </g>
</svg>
