<?xml version="1.0" encoding="UTF-8"?>
<svg width="225px" height="225px" viewBox="0 0 225 225" version="1.1" xmlns="http://www.w3.org/2000/svg" xmlns:xlink="http://www.w3.org/1999/xlink">
    <!-- Generator: Sketch 42 (36781) - http://www.bohemiancoding.com/sketch -->
    <title>portrait</title>
    <desc>Created with Sketch.</desc>
    <defs>
        <circle id="path-1" cx="110.365234" cy="110.076172" r="110"></circle>
        <mask id="mask-3" maskContentUnits="userSpaceOnUse" maskUnits="objectBoundingBox" x="-2" y="-2" width="224" height="224">
            <rect x="-1.63476562" y="-1.92382812" width="224" height="224" fill="white"></rect>
            <use xlink:href="#path-1" fill="black"></use>
        </mask>
        <path d="M1.67036599,141.751546 C0.901920028,142.232948 0.5,142.729557 0.5,143.237211 C0.5,147.655489 30.944637,151.237211 68.5,151.237211 C106.055363,151.237211 136.5,147.655489 136.5,143.237211 C136.5,142.310149 135.159638,141.419918 132.694468,140.591876 L124,68.621 L16,68.621 L1.67036599,141.751546 L1.67036599,141.751546 Z" id="path-4"></path>
        <mask id="mask-5" maskContentUnits="userSpaceOnUse" maskUnits="objectBoundingBox" x="0" y="0" width="136" height="82.6162109" fill="white">
            <use xlink:href="#path-4"></use>
        </mask>
        <path d="M3.01463148,6.83645108 C3.01376829,5.1770668 4.34605382,3.61278535 5.98067185,3.34412538 L15.0661468,1.85086921 C16.7051089,1.58149527 18.0337501,2.69661793 18.0337501,4.36608967 L18.0337501,40.5865318 C18.0337501,42.2450236 16.6893994,43.5894969 15.0343277,43.5894969 L6.03317261,43.5894969 C4.37663732,43.5894969 3.03305017,42.2439081 3.03218717,40.5849159 L3.01463148,6.83645108 Z" id="path-6"></path>
        <mask id="mask-7" maskContentUnits="userSpaceOnUse" maskUnits="objectBoundingBox" x="0" y="0" width="15.0191191" height="41.7787355" fill="white">
            <use xlink:href="#path-6"></use>
        </mask>
        <path d="M3.01463148,6.83645108 C3.01376829,5.1770668 4.34605382,3.61278535 5.98067185,3.34412538 L15.0661468,1.85086921 C16.7051089,1.58149527 18.0337501,2.69661793 18.0337501,4.36608967 L18.0337501,40.5865318 C18.0337501,42.2450236 16.6893994,43.5894969 15.0343277,43.5894969 L6.03317261,43.5894969 C4.37663732,43.5894969 3.03305017,42.2439081 3.03218717,40.5849159 L3.01463148,6.83645108 Z" id="path-8"></path>
        <mask id="mask-9" maskContentUnits="userSpaceOnUse" maskUnits="objectBoundingBox" x="0" y="0" width="15.0191191" height="41.7787355" fill="white">
            <use xlink:href="#path-8"></use>
        </mask>
    </defs>
    <g id="Welcome" stroke="none" stroke-width="1" fill="none" fill-rule="evenodd">
        <g id="Desktop" transform="translate(-184.000000, -2774.000000)">
            <g id="about-creators" transform="translate(0.000000, 2599.000000)">
                <g id="Group-5" transform="translate(147.000000, 177.000000)">
                    <g id="katya">
                        <g id="portrait" transform="translate(39.000000, 0.000000)">
                            <mask id="mask-2" fill="white">
                                <use xlink:href="#path-1"></use>
                            </mask>
                            <g id="Oval-5">
                                <use fill="#FDF04E" fill-rule="evenodd" xlink:href="#path-1"></use>
                                <use stroke="#4A4A4A" mask="url(#mask-3)" stroke-width="4" xlink:href="#path-1"></use>
                            </g>
                            <g id="Group-4" mask="url(#mask-2)">
                                <g transform="translate(41.865234, 16.000000)">
                                    <g id="neck" stroke="none" stroke-width="1" fill="none" fill-rule="evenodd" transform="translate(1.000000, 131.000000)">
                                        <path d="M53,11.6725 C53,5.5675 56.4319,0.6175 62.5369,0.6175 L72.3389,0.6175 C78.4439,0.6175 81.5,5.5675 81.5,11.6725 C81.5,11.6725 80.7878,34.1330887 83.3939,38.0665444 C86,42 116.038079,51.1242158 116.038079,51.1242158 C129,56 134.5,64 135,74.9948021 L135,95.0051979 C119,95.0051979 16.5,95.0051979 0,95.0051979 L0,74.9948021 C0,64 5.5,55.5 18.9104013,51.1448238 C18.9104013,51.1448238 48.9638,42.2324487 51.4819,38.1162244 C54,34 53,11.6725 53,11.6725 Z" id="Combined-Shape" stroke="#4A4A4A" stroke-width="2" fill="#F2E9DF" fill-rule="nonzero"></path>
                                    </g>
                                    <g id="head" stroke="none" stroke-width="1" fill="none" fill-rule="evenodd" transform="translate(0.000000, 0.379883)">
                                        <use id="Combined-Shape" stroke="#4A4A4A" mask="url(#mask-5)" stroke-width="4" fill="#17727E" xlink:href="#path-4"></use>
                                        <g id="face" transform="translate(19.000000, 19.000000)" stroke="#4A4A4A" stroke-width="2" fill="#F2E9DF" fill-rule="nonzero">
                                            <path d="M1.0039,44.1748 L1.0039,91.8328 C1.0039,121.0068 34.8088954,138.8858 49.2240866,138.8858 C63.6392779,138.8858 97.4442733,121.0068 97.4442733,91.8328 L97.4442733,44.1748 C97.4442733,21.1978 79.4159622,1.9438 49.2240866,1.9438 C19.032211,1.9438 1.0039,21.1978 1.0039,44.1748 Z" id="Fill-64"></path>
                                        </g>
                                        <g id="hair" transform="translate(1.000000, 0.621000)" stroke="#4A4A4A" stroke-width="2">
                                            <path d="M27.5,45 C27.5,45 46.5,66.8311743 94.5,60 C110,59.5 115,72 115,80.5 C115,89 118.5,144 118.5,144 C118.5,144 134,144.5 135.5,142.5 C137,140.5 128.5,51 128.5,51 C128.5,51 121,0.5 67.5,0.5 C14,0.5 7,49.5 7,49.5 C7,49.5 -1.5,139.5 0.5,142 C2.5,144.5 17,144 17,144 C17,144 17.9799115,93.2769909 20,75 C22.0200885,56.7230091 27.5,45 27.5,45 Z" id="Path" fill="#0AC5DC"></path>
                                            <path d="M27.5,45 C27.5,45 46.5,66.8311743 94.5,60 C110,59.5 115,72 115,80.5 C115,89 118.5,144 118.5,144 C118.5,144 134,144.5 135.5,142.5 C137,140.5 128.5,51 128.5,51 C128.5,51 121,0.5 67.5,0.5 C14,0.5 7,49.5 7,49.5 C7,49.5 -1.5,139.5 0.5,142 C2.5,144.5 17,144 17,144 C17,144 17.9799115,93.2769909 20,75 C22.0200885,56.7230091 27.5,45 27.5,45 Z" id="Path" fill="#11B5C9"></path>
                                        </g>
                                        <g id="eyes" transform="translate(37.500000, 86.000000)" fill-rule="nonzero" fill="#313031">
                                            <path d="M10.5247,5.97833791 C10.5247,8.7395463 8.28687048,10.9773758 5.52566209,10.9773758 C2.7644537,10.9773758 0.5247,8.7395463 0.5247,5.97833791 C0.5247,3.21712952 2.7644537,0.9793 5.52566209,0.9793 C8.28687048,0.9793 10.5247,3.21712952 10.5247,5.97833791" id="Fill-68"></path>
                                            <path d="M61.1538,5.97833791 C61.1538,8.7395463 58.9159705,10.9773758 56.1547621,10.9773758 C53.3935537,10.9773758 51.1538,8.7395463 51.1538,5.97833791 C51.1538,3.21712952 53.3935537,0.9793 56.1547621,0.9793 C58.9159705,0.9793 61.1538,3.21712952 61.1538,5.97833791" id="Fill-72"></path>
                                        </g>
                                        <g id="Group-14" transform="translate(29.500000, 72.000000)" stroke="#979797" stroke-width="3" stroke-linecap="round">
                                            <path d="M0.546563889,1.61150806 C5.09312778,-1.39798388 18.447958,3.4930204 18.447958,3.4930204" id="Line" transform="translate(9.497261, 2.062872) rotate(-3.000000) translate(-9.497261, -2.062872) "></path>
                                            <path d="M59.5465639,1.61150806 C64.0931278,-1.39798388 77.447958,3.4930204 77.447958,3.4930204" id="Line" transform="translate(68.497261, 2.062872) scale(-1, 1) rotate(-3.000000) translate(-68.497261, -2.062872) "></path>
                                        </g>
                                        <path d="M58.273033,128.041645 C58.273033,128.041645 59.4631027,129.3958 63.1878992,131.309143 C70.0536116,134.30407 79.1878992,134.809143 85.1878992,130.909149" id="mouth" stroke="#4A4A4A" stroke-width="2" stroke-linecap="round" transform="translate(71.730466, 130.868268) rotate(-15.000000) translate(-71.730466, -130.868268) "></path>
                                        <path d="M75.3219045,107.871993 L76.0097627,112.151109 C76.6736885,116.281344 73.3016874,119.62956 68.5000545,119.62956 C63.6886314,119.62956 60.3268131,116.278902 60.9903464,112.151109" id="nouse" stroke="#4A4A4A" stroke-width="2" stroke-linecap="round"></path>
                                    </g>
                                    <path d="M23,231.348051 C21.901125,226.617091 19.7326511,222.063239 15.5199045,218.401154 C11.0752587,214.537482 5.93180815,212.232854 1,211.540942 L1,205.994802 C1,195 6.5,186.5 19.9104013,182.144824 C19.9104013,182.144824 30.4252156,179.026642 39.5369569,175.627235 C42.1656605,184.385678 54.1335329,191 68.5,191 C82.9131662,191 94.9121188,184.342608 97.4883812,175.541757 C106.594005,178.951777 117.038079,182.124216 117.038079,182.124216 C130,187 135.5,195 136,205.994802 L136,211.661031 C131.30445,212.475041 126.460838,214.737008 122.24572,218.401154 C119.019973,221.205254 116.164214,224.685338 114,228.372428 C114,228.372428 108.5,265 108.5,282 C113.5,297 114,306.000368 114,306.000368 C114,306.552449 113.553295,307 113.009042,307 L23.9909583,307 C23.4436671,307 23,306.549699 23,306.000368 C23,306.000368 24,295.5 29,282 C29,270.734506 23,231.348051 23,231.348051 Z" id="tshirt" stroke="#4A4A4A" stroke-width="2" fill="#A285B9" fill-rule="nonzero"></path>
                                    <g id="overall" stroke="none" stroke-width="1" fill="none" fill-rule="evenodd" transform="translate(10.500000, 172.000000)">
                                        <g id="stripe-left" transform="translate(13.500000, 0.000000)" stroke="#4A4A4A" stroke-width="4" fill="#296A9E">
                                            <use id="Rectangle-7" mask="url(#mask-7)" transform="translate(10.524191, 22.700129) rotate(-8.000000) translate(-10.524191, -22.700129) " xlink:href="#path-6"></use>
                                        </g>
                                        <g id="stripe-right" transform="translate(90.000000, 30.000000) scale(-1, 1) translate(-90.000000, -30.000000) translate(77.500000, 0.000000)" stroke="#4A4A4A" stroke-width="4" fill="#296A9E">
                                            <use id="Rectangle-7" mask="url(#mask-9)" transform="translate(10.524191, 22.700129) rotate(-8.000000) translate(-10.524191, -22.700129) " xlink:href="#path-8"></use>
                                        </g>
                                    </g>
                                </g>
                            </g>
                        </g>
                    </g>
                </g>
            </g>
        </g>
    </g>
</svg>