<?xml version="1.0" encoding="UTF-8"?>
<svg width="119px" height="60px" viewBox="0 0 119 60" version="1.1" xmlns="http://www.w3.org/2000/svg" xmlns:xlink="http://www.w3.org/1999/xlink">
    <!-- Generator: Sketch 42 (36781) - http://www.bohemiancoding.com/sketch -->
    <title>logo</title>
    <desc>Created with Sketch.</desc>
    <defs>
        <rect id="path-1" x="0" y="0" width="117.647059" height="58.8235294" rx="5.88235294"></rect>
        <mask id="mask-2" maskContentUnits="userSpaceOnUse" maskUnits="objectBoundingBox" x="0" y="0" width="117.647059" height="58.8235294" fill="white">
            <use xlink:href="#path-1"></use>
        </mask>
        <rect id="path-3" x="2.94117647" y="2.94117647" width="111.764706" height="52.9411765" rx="2.94117647"></rect>
        <mask id="mask-4" maskContentUnits="userSpaceOnUse" maskUnits="objectBoundingBox" x="0" y="0" width="111.764706" height="52.9411765" fill="white">
            <use xlink:href="#path-3"></use>
        </mask>
    </defs>
    <g id="Welcome" stroke="none" stroke-width="1" fill="none" fill-rule="evenodd">
        <g id="Desktop" transform="translate(-173.000000, -32.000000)">
            <g id="header" transform="translate(173.000000, 32.000000)">
                <g id="menu" transform="translate(0.500000, 0.000000)">
                    <g id="logo" transform="translate(0.080423, 0.007812)">
                        <g id="Group-9" transform="translate(0.000000, 0.085501)">
                            <g id="plate" transform="translate(0.131376, 0.203790)">
                                <g>
                                    <use id="Rectangle" stroke="#4A4A4A" mask="url(#mask-2)" stroke-width="1.5" fill="#FFFFFF" xlink:href="#path-1"></use>
                                    <use id="Rectangle" stroke="#4A4A4A" mask="url(#mask-4)" stroke-width="1.5" xlink:href="#path-3"></use>
                                    <g id="california" transform="translate(25.970991, 5.261886)" fill="#A20400">
                                        <path d="M5.96293312,4.83481064 C5.96293312,4.83481064 5.43916197,5.60032232 5.92264303,6.0435133 C6.40612409,6.48670427 6.80902498,6.16438356 7.01047542,5.6809025 C7.21192587,5.19742143 8.29975826,3.66639807 8.29975826,3.66639807 C8.29975826,3.66639807 9.54875101,1.45044319 8.98468977,0.564061241 C8.42062853,-0.322320709 6.88960516,0.241740532 6.88960516,0.241740532 C6.88960516,0.241740532 3.50523771,1.57131346 1.32957293,6.12409347 C-5.04804532e-14,8.74294923 -0.201450443,9.46817083 0.201450443,11.3215149 C0.60435133,13.174859 2.37711523,13.1345689 2.94117647,12.8928284 C3.50523771,12.6510878 5.27800161,11.804996 8.78323932,7.73569702 C9.22617942,7.22147921 8.58178888,6.88960516 8.25946817,7.0910556 C7.93714746,7.29250604 4.23045931,10.9991942 3.02175665,11.5229654 C1.81305399,12.0467365 1.49073328,11.7244158 1.65189363,10.2739726 C1.81305399,8.82352941 4.14987913,4.75423046 4.99597099,3.5455278 C5.84206285,2.33682514 6.96587807,1.34231503 7.57453666,1.16841257 C7.85656728,1.08783239 8.05801773,1.12812248 8.14404038,1.21946371 C8.23006303,1.31080494 8.25946817,1.61160355 8.17888799,1.89363417 C8.091476,2.19957615 7.73569702,3.02175665 7.25221595,3.66639807 C6.76873489,4.31103948 5.96293312,4.83481064 5.96293312,4.83481064 Z" id="Path"></path>
                                        <path d="M61.0394843,5.72119259 C61.2409347,5.92264303 61.361805,5.92264303 61.5632554,5.80177276 C61.7647059,5.6809025 62.5302176,5.51974214 62.1273167,6.48670427 C61.7244158,7.4536664 61.5632554,8.05801773 61.5229654,8.62207897 C61.5229654,10.0725222 62.1273167,10.918614 63.7792103,11.1603546 C65.4311039,11.4020951 68.0096696,11.0797744 69.0572119,10.9991942 C70.1047542,10.918614 70.3464948,11.1603546 70.3464948,11.361805 C70.3464948,11.5632554 70.2659146,11.6438356 69.2586624,11.8452861 C66.8412571,12.3287671 65.1490733,12.288477 64.0209508,12.2078969 C62.8928284,12.1273167 62.1676068,12.0064464 61.361805,11.0797744 C60.5560032,10.1531023 60.7171636,8.5012087 60.7171636,8.17888799 C60.7171636,7.85656728 60.5962933,7.85656728 60.3948429,8.05801773 C59.8710717,8.70265915 57.8968574,10.3142627 57.292506,10.5962933 C56.6881547,10.8783239 56.1240935,10.9991942 55.7614827,10.5157131 C55.3988719,10.0322321 55.5197421,9.34730056 56.0032232,8.5012087 C57.1716358,6.40612409 59.10556,5.84206285 59.8307816,5.64061241 C60.5157131,5.43916197 60.8380338,5.60032232 61.0394843,5.72119259 Z M59.548751,7.13134569 C59.2667204,7.25221595 57.8565673,7.77598711 57.2119259,8.8638195 C56.5672844,9.95165189 57.6954069,9.26672039 57.6954069,9.26672039 C57.6954069,9.26672039 59.6293312,7.85656728 59.8307816,7.61482675 C60.0322321,7.25221595 60.0322321,6.97018533 59.548751,7.13134569 Z" id="Combined-Shape"></path>
                                        <path d="M13.2151491,7.73569702 C13.3360193,7.97743755 13.5777599,7.77598711 13.5777599,7.77598711 C13.5777599,7.77598711 13.8597905,7.41337631 14.1821112,7.4536664 C14.8267526,7.53424658 14.6655923,8.21917808 14.6253022,8.38033844 C14.4641418,8.82352941 14.101531,9.06526994 14.0209508,9.50846092 C13.7389202,10.918614 13.9000806,10.918614 14.987913,10.2336825 C16.0757454,9.54875101 16.4786463,8.38033844 16.4786463,8.38033844 C16.4786463,8.38033844 17.0024174,6.60757454 17.5261886,5.88235294 C19.2183723,2.8203062 20.910556,1.0475423 21.5954875,0.564061241 C22.280419,0.0805801773 22.4415794,1.12812248 22.3609992,1.57131346 C21.9580983,3.5455278 19.8630137,6.64786463 19.8630137,6.64786463 C19.8630137,6.64786463 18.0902498,9.18614021 17.6470588,9.18614021 C17.2038678,9.18614021 17.284448,9.50846092 17.284448,9.50846092 C17.284448,9.50846092 17.0829976,10.2739726 17.2038678,10.8380338 C17.3247381,11.4020951 17.6873489,11.3215149 18.0902498,11.2409347 C18.6946011,11.2006446 22.0386785,7.4536664 22.2401289,7.17163578 C22.4415794,6.88960516 23.0056406,6.97018533 23.2876712,7.21192587 C23.7308622,7.57453666 23.7711523,7.93714746 23.7711523,7.93714746 C23.7711523,7.93714746 23.4891217,9.06526994 23.3682514,9.87107172 C23.2473811,10.6768735 23.4891217,10.7977438 23.9726027,10.475423 C24.4560838,10.1531023 26.3900081,8.21917808 26.5914585,7.97743755 C26.7929089,7.4536664 26.8734891,7.57453666 27.0749396,7.4536664 C27.4778405,7.05076551 27.9613215,6.08380338 28.162772,5.39887188 C28.8074134,2.8203062 29.8146656,0.765511684 29.8146656,0.765511684 C29.8146656,0.765511684 30.016116,0.161160355 30.3787268,0.241740532 C30.7413376,0.322320709 30.9427881,0.725221595 30.902498,1.0475423 C30.7413376,3.22320709 30.5801773,3.38436745 29.4117647,5.43916197 C28.2433521,7.49395649 28.0419017,8.74294923 27.7598711,9.38759065 C27.4778405,10.0322321 27.7598711,10.1128122 28.203062,9.83078163 C29.4520548,9.02497985 31.1442385,7.65511684 31.82917,7.0910556 C32.5141015,6.52699436 33.8033844,5.80177276 34.6494762,6.08380338 C35.455278,6.32554392 35.7775987,6.88960516 35.7775987,7.53424658 C35.7775987,8.17888799 36.1804996,7.73569702 36.1804996,7.73569702 C36.1804996,7.73569702 38.0741338,6.28525383 38.3158743,5.84206285 C38.5576148,5.39887188 39.2425463,5.39887188 39.4037067,5.72119259 C39.564867,6.0435133 39.7260274,6.48670427 40.0886382,6.84931507 C40.451249,7.21192587 40.008058,7.61482675 40.008058,7.61482675 C40.008058,7.61482675 39.524577,7.97743755 39.1619662,8.74294923 C38.7993554,9.50846092 38.5576148,10.5560032 39.3634166,10.3545528 C40.1692184,10.1531023 41.5793715,8.5012087 41.5793715,8.5012087 C41.5793715,8.5012087 43.0298147,7.17163578 43.3118453,6.88960516 C43.5938759,6.60757454 44.0370669,6.52699436 44.2385173,6.7284448 C44.6817083,7.21192587 44.6817083,7.33279613 44.6817083,7.97743755 C44.6817083,8.62207897 45.004029,8.29975826 45.004029,8.29975826 C45.004029,8.29975826 46.0515713,7.49395649 46.4544722,7.17163578 C46.8573731,6.84931507 47.743755,6.40612409 48.1466559,6.60757454 C48.9927478,7.13134569 48.7510073,7.93714746 48.7510073,9.26672039 C48.7510073,10.5962933 49.6373892,9.75020145 49.7582595,9.62933118 C49.8791297,9.50846092 52.3771152,7.05076551 52.3771152,7.05076551 C52.3771152,7.05076551 53.3843674,5.92264303 53.9887188,6.08380338 C54.5930701,6.24496374 54.4721998,7.13134569 54.2707494,8.58178888 C54.069299,10.0322321 54.5930701,10.6365834 54.7945205,10.918614 C54.995971,11.2006446 55.439162,11.7647059 54.9556809,11.8855761 C53.7066882,12.0870266 53.4649476,10.6768735 53.3843674,10.435133 C53.2232071,9.87107172 53.3037873,8.25946817 53.2634972,7.93714746 C53.1426269,7.4536664 52.7800161,7.77598711 52.7800161,7.77598711 C52.7800161,7.77598711 51.2892828,9.02497985 50.8460919,9.5890411 C50.4029009,10.1531023 49.4359388,11.2812248 48.3883965,10.7977438 C47.3408541,10.3142627 47.6228848,8.82352941 47.6228848,8.29975826 C47.6228848,7.77598711 47.0991136,7.57453666 46.7767929,7.85656728 C46.4947623,8.09830782 44.1579371,10.1531023 43.634166,10.7171636 C43.1103948,11.2812248 42.8686543,11.4020951 42.6672039,11.2409347 C42.4657534,11.0797744 42.3448832,10.7977438 42.3448832,10.3142627 C42.3448832,9.83078163 43.1506849,8.98468977 43.190975,8.8638195 C43.2312651,8.74294923 43.190975,8.21917808 42.8686543,8.42062853 C42.3448832,8.70265915 41.7405318,9.38759065 40.6124093,10.5560032 C39.4842869,11.7244158 38.9202256,11.5229654 38.7993554,11.4826753 C38.6784851,11.4423852 38.2352941,11.2812248 37.9129734,10.5560032 C37.5906527,9.83078163 37.9935536,9.02497985 38.2352941,8.42062853 C38.4770346,7.8162772 38.5576148,7.61482675 38.5576148,7.33279613 C38.5576148,7.05076551 38.3158743,6.92989525 38.0741338,7.21192587 C36.9863014,8.54149879 36.1402095,8.94439968 36.1402095,8.94439968 C36.1402095,8.94439968 36.0193392,8.8638195 35.8178888,9.2264303 C35.5358582,9.99194198 34.6494762,10.8783239 34.6494762,10.8783239 C34.6494762,10.8783239 33.3601934,11.9258662 32.4335214,11.6841257 C31.2651088,11.2471647 31.1845286,10.475423 31.1442385,10.2739726 C31.1039484,10.0725222 31.1845286,8.90410959 31.1845286,8.90410959 C31.1845286,8.90410959 31.1845286,8.58178888 30.9427881,8.82352941 C30.7010475,9.06526994 28.8074134,10.475423 28.646253,10.5962933 C28.4850927,10.7171636 28.3239323,10.8380338 28.6059629,11.1200645 C29.3311845,12.3287671 28.7268332,13.0539887 28.7268332,13.0539887 C28.7268332,13.0539887 26.7929089,15.7937147 25.2215955,16.7203868 C23.650282,17.6470588 24.0531829,16.1160355 24.0531829,16.1160355 L24.536664,14.4641418 L25.9468171,10.7977438 C25.9468171,10.7977438 26.1885576,10.475423 26.0273973,10.2336825 C25.8259468,10.0725222 25.9468171,9.95165189 26.0273973,9.9113618 C26.1079774,9.87107172 26.1079774,9.9113618 26.2288477,9.75020145 C26.3900081,9.42788074 26.0676873,9.54875101 26.0676873,9.54875101 C25.972295,9.62946757 24.7784045,10.7574537 24.1337631,11.5229654 C23.4891217,12.288477 23.1265109,12.288477 23.0056406,12.288477 C22.8847703,12.288477 22.3609992,12.2481869 22.2401289,11.7647059 C21.9983884,10.475423 22.1998388,10.1128122 22.3207091,9.50846092 C22.4012893,9.10556003 22.3207091,8.90410959 22.2401289,8.82352941 C22.1595488,8.74294923 22.0386785,8.66236906 21.837228,8.8638195 C18.17083,12.4899275 17.8485093,12.3287671 17.1635778,12.2078969 C16.357776,12.0467365 16.1966156,10.9991942 16.1966156,10.6365834 C16.1966156,10.2739726 15.9548751,10.3545528 15.8340048,10.475423 C15.7131346,10.5962933 15.1893634,11.2409347 14.3029815,11.6438356 C13.0539887,12.2078969 12.8928284,11.2812248 12.8928284,11.2812248 C12.8928284,11.2812248 12.8525383,10.7171636 12.7719581,10.3142627 C12.5705077,9.99194198 12.3690572,10.2336825 12.3690572,10.2336825 C12.3690572,10.2336825 10.5872568,12.3287671 9.34730056,12.6510878 C8.10734428,12.9734085 7.8162772,11.6438356 8.01772764,11.0797744 C8.82352941,8.82352941 10.475423,7.85656728 11.7244158,7.37308622 C12.9734085,6.88960516 13.0539887,7.53424658 13.2151491,7.73569702 Z M12.0064464,8.8638195 C12.0064464,8.8638195 11.4826753,8.8638195 11.0797744,9.18614021 C10.6768735,9.50846092 9.66962127,10.5560032 9.66962127,10.5560032 C9.66962127,10.5560032 9.26672039,10.9991942 9.46817083,11.2006446 C9.66962127,11.4020951 10.3142627,10.918614 10.3142627,10.918614 C10.3142627,10.918614 11.9258662,9.66962127 12.0870266,9.34730056 C12.2481869,9.02497985 12.0064464,8.8638195 12.0064464,8.8638195 Z M20.7091056,2.86059629 C20.7091056,2.86059629 18.9363417,5.11684126 18.0902498,6.92989525 C17.2441579,8.74294923 19.2586624,5.88235294 19.2586624,5.88235294 L20.910556,3.30378727 C20.910556,3.30378727 21.1120064,2.78001612 21.0314263,2.65914585 C20.9508461,2.53827558 20.7091056,2.86059629 20.7091056,2.86059629 Z M27.1152297,11.361805 C27.0346495,11.6035455 26.5108783,13.4568896 25.8662369,14.7864625 C25.5439162,15.5116841 25.7050766,15.7937147 26.3094279,14.9073328 C26.9137792,14.0209508 27.6792909,13.0539887 27.8001612,12.4093473 C27.9210314,11.7647059 27.6792909,11.4826753 27.4778405,11.2409347 C27.27639,10.9991942 27.1958098,11.1200645 27.1152297,11.361805 Z M34.5688961,7.61482675 C34.5688961,7.61482675 34.4077357,7.13134569 33.8839645,7.49395649 C33.3601934,7.85656728 32.4335214,8.90410959 32.4335214,9.62933118 C32.4335214,10.3545528 32.4134239,11.0797744 32.9572925,10.9589041 C33.5011611,10.8380338 34.1659952,10.2739726 34.528606,9.38759065 C34.8912168,8.5012087 34.5688961,7.61482675 34.5688961,7.61482675 Z" id="Combined-Shape"></path>
                                        <path d="M54.9556809,1.93392425 C54.8348106,2.09508461 54.7542305,2.65914585 55.1168413,3.02175665 C55.4794521,3.38436745 55.7614827,2.94117647 55.7614827,2.94117647 C55.7614827,2.94117647 56.1753043,2.29653505 55.8017728,1.93392425 C55.4282412,1.57131346 55.1367486,1.6463461 54.9556809,1.93392425 Z" id="Path-5"></path>
                                        <path d="M23.8920226,3.182917 C23.7308622,3.26349718 23.5400933,3.30378727 23.650282,3.9081386 C23.7604707,4.51248993 23.9726027,4.63336019 24.3352135,4.47219984 C24.6978243,4.31103948 24.7784045,3.82755842 24.6978243,3.50523771 C24.6172442,3.182917 24.1643736,3.02175665 23.8920226,3.182917 Z" id="Path-10"></path>
                                    </g>
                                    <text id="BIBIKA" font-family="LicensePlate, License Plate" font-size="31.7647059" font-weight="normal" letter-spacing="0.441176489" fill="#071A47">
                                        <tspan x="16.4547909" y="49.443191">BIBIK</tspan>
                                        <tspan x="88.4251494" y="49.443191">A</tspan>
                                    </text>
                                    <g id="Group" transform="translate(104.773311, 10.357429) rotate(3.000000) translate(-104.773311, -10.357429) translate(95.273311, 5.357429)">
                                        <rect id="Rectangle-3" fill="#B9190A" x="0.980324343" y="0.0711601573" width="17.0829976" height="9.83078163"></rect>
                                        <text id="2017" font-family="Helvetica-Bold, Helvetica" font-size="5.29411765" font-weight="bold" letter-spacing="-0.213903733" fill="#000000">
                                            <tspan x="4.07623756" y="5.07116016">201</tspan>
                                            <tspan x="12.2675342" y="5.07116016" letter-spacing="-0.244461402">7</tspan>
                                        </text>
                                        <text id="Z" font-family="Helvetica-Bold, Helvetica" font-size="2.94117647" font-weight="bold" letter-spacing="-0.955882341" fill="#000000">
                                            <tspan x="2.18841543" y="8.68622379">Z</tspan>
                                        </text>
                                        <text id="4205042" font-family="CenturySchoolbook, Century Schoolbook" font-size="2.35294118" font-weight="normal" fill="#000000">
                                            <tspan x="5.13950838" y="8.23364675">4205042</tspan>
                                        </text>
                                        <text id="C-A" font-family="Helvetica-Bold, Helvetica" font-size="2.35294118" font-weight="bold" line-spacing="2.05882353" letter-spacing="-0.955882341" fill="#000000">
                                            <tspan x="0.0619747912" y="4.46422381">C</tspan>
                                            <tspan x="0.0619747912" y="6.52304734">A</tspan>
                                        </text>
                                        <text id="A-C-T-M" font-family="Helvetica-Bold, Helvetica" font-size="1.47058824" font-weight="bold" line-spacing="1.47058824" letter-spacing="-0.955882341" fill="#000000">
                                            <tspan x="16.2538842" y="2.44681549">A</tspan>
                                            <tspan x="16.2538842" y="3.91740372">C</tspan>
                                            <tspan x="16.3069489" y="5.38799196">T</tspan>
                                            <tspan x="16.1723844" y="6.85858019">M</tspan>
                                        </text>
                                    </g>
                                    <g id="app-info-sticker" transform="translate(13.288332, 9.529189) rotate(-2.000000) translate(-13.288332, -9.529189) translate(4.288332, 4.529189)">
                                        <rect id="Rectangle-3" fill="#E2E1DC" x="0.23073088" y="0.162875814" width="17.0829976" height="9.83078163"></rect>
                                        <text id="APP-INFO" font-family="Arial-Black, Arial Black" font-size="5.29411765" font-weight="700" line-spacing="4.41176471" letter-spacing="-0.147058826" fill="#022B7D">
                                            <tspan x="2.08435628" y="5.04799319">APP</tspan>
                                            <tspan x="1.09170923" y="9.4597579">INF</tspan>
                                            <tspan x="10.6519689" y="9.4597579" letter-spacing="-0.661764711">O</tspan>
                                        </text>
                                    </g>
                                </g>
                                <g id="screws" transform="translate(22.377115, 4.379533)" stroke-linecap="round" stroke-width="0.75">
                                    <g id="Group-3" transform="translate(2.377480, 2.498325) rotate(-10.000000) translate(-2.377480, -2.498325) translate(0.377480, 0.498325)">
                                        <ellipse id="Oval" stroke="#9B9B9B" fill="#D8D8D8" cx="1.66637288" cy="1.63593673" rx="1.61160355" ry="1.61160355"></ellipse>
                                        <g id="Group-2" transform="translate(0.699411, 0.668975)" stroke="#4A4A4A">
                                            <path id="Path-11"></path>
                                            <path id="Path-11"></path>
                                        </g>
                                    </g>
                                    <g id="Group-3" transform="translate(70.459026, 2.669116) rotate(22.000000) translate(-70.459026, -2.669116) translate(68.459026, 0.669116)">
                                        <ellipse id="Oval" stroke="#9B9B9B" fill="#D8D8D8" cx="1.66637288" cy="1.63593673" rx="1.61160355" ry="1.61160355"></ellipse>
                                        <g id="Group-2" transform="translate(0.489902, 0.606525)" stroke="#4A4A4A">
                                            <path id="Path-11"></path>
                                            <path id="Path-11"></path>
                                        </g>
                                    </g>
                                    <g id="Group-3" transform="translate(70.376370, 48.018018) rotate(67.000000) translate(-70.376370, -48.018018) translate(68.376370, 46.018018)">
                                        <ellipse id="Oval" stroke="#9B9B9B" fill="#D8D8D8" cx="1.66637288" cy="1.63593673" rx="1.61160355" ry="1.61160355"></ellipse>
                                        <g id="Group-2" transform="translate(0.489902, 0.606525)" stroke="#4A4A4A">
                                            <path id="Path-11"></path>
                                            <path id="Path-11"></path>
                                        </g>
                                    </g>
                                    <g id="Group-3" transform="translate(2.290657, 48.232807) rotate(5.000000) translate(-2.290657, -48.232807) translate(0.290657, 46.232807)">
                                        <ellipse id="Oval" stroke="#9B9B9B" fill="#D8D8D8" cx="1.66637288" cy="1.63593673" rx="1.61160355" ry="1.61160355"></ellipse>
                                        <g id="Group-2" transform="translate(0.636961, 0.459466)" stroke="#4A4A4A">
                                            <path id="Path-11"></path>
                                            <path id="Path-11"></path>
                                        </g>
                                    </g>
                                </g>
                            </g>
                        </g>
                    </g>
                </g>
            </g>
        </g>
    </g>
</svg>