<svg xmlns="http://www.w3.org/2000/svg" xmlns:xlink="http://www.w3.org/1999/xlink" width="120" height="60" viewBox="0 0 120 60">
  <defs>
    <rect id="logo-a" width="120" height="60" rx="6"/>
  </defs>
  <g fill="none" fill-rule="evenodd">
    <use fill="#FFF" xlink:href="#logo-a"/>
    <rect width="119.4" height="59.4" x=".3" y=".3" stroke="#4A4A4A" stroke-width=".6" rx="6"/>
    <rect width="113.4" height="53.4" x="3.3" y="3.3" stroke="#4A4A4A" stroke-width=".6" rx="3"/>
    <g fill="#A20400" transform="translate(26.49 5.367)">
      <path d="M6.08219178 4.93150685C6.08219178 4.93150685 5.54794521 5.71232877 6.04109589 6.16438356 6.53424658 6.61643836 6.94520548 6.28767123 7.15068493 5.79452055 7.35616438 5.30136986 8.46575342 3.73972603 8.46575342 3.73972603 8.46575342 3.73972603 9.73972603 1.47945205 9.16438356.575342466 8.5890411-.328767123 7.02739726.246575342 7.02739726.246575342 7.02739726.246575342 3.57534247 1.60273973 1.35616438 6.24657534 5.31519273e-15 8.91780822-.205479452 9.65753425.205479452 11.5479452.616438356 13.4383562 2.42465753 13.3972603 3 13.1506849 3.57534247 12.9041096 5.38356164 12.0410959 8.95890411 7.89041096 9.41070301 7.36590879 8.75342466 7.02739726 8.42465753 7.23287671 8.09589041 7.43835616 4.31506849 11.2191781 3.08219178 11.7534247 1.84931507 12.2876712 1.52054795 11.9589041 1.68493151 10.4794521 1.84931507 9 4.23287671 4.84931507 5.09589041 3.61643836 5.95890411 2.38356164 7.10519563 1.36916133 7.7260274 1.19178082 8.01369863 1.10958904 8.21917808 1.15068493 8.30692119 1.24385299 8.39466429 1.33702104 8.42465753 1.64383562 8.34246575 1.93150685 8.25330552 2.24356768 7.89041096 3.08219178 7.39726027 3.73972603 6.90410959 4.39726027 6.08219178 4.93150685 6.08219178 4.93150685zM62.260274 5.83561644C62.4657534 6.04109589 62.5890411 6.04109589 62.7945205 5.91780822 63 5.79452055 63.7808219 5.63013699 63.369863 6.61643836 62.9589041 7.60273973 62.7945205 8.21917808 62.7534247 8.79452055 62.7534247 10.2739726 63.369863 11.1369863 65.0547945 11.3835616 66.739726 11.630137 69.369863 11.3013699 70.4383562 11.2191781 71.5068493 11.1369863 71.7534247 11.3835616 71.7534247 11.5890411 71.7534247 11.7945205 71.6712329 11.8767123 70.6438356 12.0821918 68.1780822 12.5753425 66.4520548 12.5342466 65.3013699 12.4520548 64.1506849 12.369863 63.4109589 12.2465753 62.5890411 11.3013699 61.7671233 10.3561644 61.9315068 8.67123288 61.9315068 8.34246575 61.9315068 8.01369863 61.8082192 8.01369863 61.6027397 8.21917808 61.0684932 8.87671233 59.0547945 10.5205479 58.4383562 10.8082192 57.8219178 11.0958904 57.2465753 11.2191781 56.8767123 10.7260274 56.5068493 10.2328767 56.630137 9.53424658 57.1232877 8.67123288 58.3150685 6.53424658 60.2876712 5.95890411 61.0273973 5.75342466 61.7260274 5.54794521 62.0547945 5.71232877 62.260274 5.83561644zM60.739726 7.2739726C60.4520548 7.39726027 59.0136986 7.93150685 58.3561644 9.04109589 57.6986301 10.1506849 58.8493151 9.45205479 58.8493151 9.45205479 58.8493151 9.45205479 60.8219178 8.01369863 61.0273973 7.76712329 61.2328767 7.39726027 61.2328767 7.10958904 60.739726 7.2739726zM13.4794521 7.89041096C13.6027397 8.1369863 13.8493151 7.93150685 13.8493151 7.93150685 13.8493151 7.93150685 14.1369863 7.56164384 14.4657534 7.60273973 15.1232877 7.68493151 14.9589041 8.38356164 14.9178082 8.54794521 14.7534247 9 14.3835616 9.24657534 14.3013699 9.69863014 14.0136986 11.1369863 14.1780822 11.1369863 15.2876712 10.4383562 16.3972603 9.73972603 16.8082192 8.54794521 16.8082192 8.54794521 16.8082192 8.54794521 17.3424658 6.73972603 17.8767123 6 19.6027397 2.87671233 21.3287671 1.06849315 22.0273973.575342466 22.7260274.0821917808 22.890411 1.15068493 22.8082192 1.60273973 22.3972603 3.61643836 20.260274 6.78082192 20.260274 6.78082192 20.260274 6.78082192 18.4520548 9.36986301 18 9.36986301 17.5479452 9.36986301 17.630137 9.69863014 17.630137 9.69863014 17.630137 9.69863014 17.4246575 10.4794521 17.5479452 11.0547945 17.6712329 11.630137 18.0410959 11.5479452 18.4520548 11.4657534 19.0684932 11.4246575 22.4794521 7.60273973 22.6849315 7.31506849 22.890411 7.02739726 23.4657534 7.10958904 23.7534247 7.35616438 24.2054795 7.7260274 24.2465753 8.09589041 24.2465753 8.09589041 24.2465753 8.09589041 23.9589041 9.24657534 23.8356164 10.0684932 23.7123288 10.890411 23.9589041 11.0136986 24.4520548 10.6849315 24.9452055 10.3561644 26.9178082 8.38356164 27.1232877 8.1369863 27.3287671 7.60273973 27.4109589 7.7260274 27.6164384 7.60273973 28.0273973 7.19178082 28.5205479 6.20547945 28.7260274 5.50684932 29.3835616 2.87671233 30.4109589.780821918 30.4109589.780821918 30.4109589.780821918 30.6164384.164383562 30.9863014.246575342 31.3561644.328767123 31.5616438.739726027 31.5205479 1.06849315 31.3561644 3.28767123 31.1917808 3.45205479 30 5.54794521 28.8082192 7.64383562 28.6027397 8.91780822 28.3150685 9.57534247 28.0273973 10.2328767 28.3150685 10.3150685 28.7671233 10.0273973 30.0410959 9.20547945 31.7671233 7.80821918 32.4657534 7.23287671 33.1643836 6.65753425 34.4794521 5.91780822 35.3424658 6.20547945 36.1643836 6.45205479 36.4931507 7.02739726 36.4931507 7.68493151 36.4931507 8.34246575 36.9041096 7.89041096 36.9041096 7.89041096 36.9041096 7.89041096 38.8356164 6.4109589 39.0821918 5.95890411 39.3287671 5.50684932 40.0273973 5.50684932 40.1917808 5.83561644 40.3561644 6.16438356 40.5205479 6.61643836 40.890411 6.98630137 41.260274 7.35616438 40.8082192 7.76712329 40.8082192 7.76712329 40.8082192 7.76712329 40.3150685 8.1369863 39.9452055 8.91780822 39.5753425 9.69863014 39.3287671 10.7671233 40.1506849 10.5616438 40.9726027 10.3561644 42.4109589 8.67123288 42.4109589 8.67123288 42.4109589 8.67123288 43.890411 7.31506849 44.1780822 7.02739726 44.4657534 6.73972603 44.9178082 6.65753425 45.1232877 6.8630137 45.5753425 7.35616438 45.5753425 7.47945205 45.5753425 8.1369863 45.5753425 8.79452055 45.9041096 8.46575342 45.9041096 8.46575342 45.9041096 8.46575342 46.9726027 7.64383562 47.3835616 7.31506849 47.7945205 6.98630137 48.6986301 6.53424658 49.109589 6.73972603 49.9726027 7.2739726 49.7260274 8.09589041 49.7260274 9.45205479 49.7260274 10.8082192 50.630137 9.94520548 50.7534247 9.82191781 50.8767123 9.69863014 53.4246575 7.19178082 53.4246575 7.19178082 53.4246575 7.19178082 54.4520548 6.04109589 55.0684932 6.20547945 55.6849315 6.36986301 55.5616438 7.2739726 55.3561644 8.75342466 55.1506849 10.2328767 55.6849315 10.8493151 55.890411 11.1369863 56.0958904 11.4246575 56.5479452 12 56.0547945 12.1232877 54.7808219 12.3287671 54.5342466 10.890411 54.4520548 10.6438356 54.2876712 10.0684932 54.369863 8.42465753 54.3287671 8.09589041 54.2054795 7.60273973 53.8356164 7.93150685 53.8356164 7.93150685 53.8356164 7.93150685 52.3150685 9.20547945 51.8630137 9.78082192 51.4109589 10.3561644 50.4246575 11.5068493 49.3561644 11.0136986 48.2876712 10.5205479 48.5753425 9 48.5753425 8.46575342 48.5753425 7.93150685 48.0410959 7.7260274 47.7123288 8.01369863 47.4246575 8.26027397 45.0410959 10.3561644 44.5068493 10.9315068 43.9726027 11.5068493 43.7260274 11.630137 43.5205479 11.4657534 43.3150685 11.3013699 43.1917808 11.0136986 43.1917808 10.5205479 43.1917808 10.0273973 44.0136986 9.16438356 44.0547945 9.04109589 44.0958904 8.91780822 44.0547945 8.38356164 43.7260274 8.5890411 43.1917808 8.87671233 42.5753425 9.57534247 41.4246575 10.7671233 40.2739726 11.9589041 39.6986301 11.7534247 39.5753425 11.7123288 39.4520548 11.6712329 39 11.5068493 38.6712329 10.7671233 38.3424658 10.0273973 38.7534247 9.20547945 39 8.5890411 39.2465753 7.97260274 39.3287671 7.76712329 39.3287671 7.47945205 39.3287671 7.19178082 39.0821918 7.06849315 38.8356164 7.35616438 37.7260274 8.71232877 36.8630137 9.12328767 36.8630137 9.12328767 36.8630137 9.12328767 36.739726 9.04109589 36.5342466 9.4109589 36.2465753 10.1917808 35.3424658 11.0958904 35.3424658 11.0958904 35.3424658 11.0958904 34.0273973 12.1643836 33.0821918 11.9178082 31.890411 11.472108 31.8082192 10.6849315 31.7671233 10.4794521 31.7260274 10.2739726 31.8082192 9.08219178 31.8082192 9.08219178 31.8082192 9.08219178 31.8082192 8.75342466 31.5616438 9 31.3150685 9.24657534 29.3835616 10.6849315 29.2191781 10.8082192 29.0547945 10.9315068 28.890411 11.0547945 29.1780822 11.3424658 29.9178082 12.5753425 29.3013699 13.3150685 29.3013699 13.3150685 29.3013699 13.3150685 27.3287671 16.109589 25.7260274 17.0547945 24.1232877 18 24.5342466 16.4383562 24.5342466 16.4383562L25.0273973 14.7534247 26.4657534 11.0136986C26.4657534 11.0136986 26.7123288 10.6849315 26.5479452 10.4383562 26.3424658 10.2739726 26.4657534 10.1506849 26.5479452 10.109589 26.630137 10.0684932 26.630137 10.109589 26.7534247 9.94520548 26.9178082 9.61643836 26.5890411 9.73972603 26.5890411 9.73972603 26.4917409 9.82205692 25.2739726 10.9726027 24.6164384 11.7534247 23.9589041 12.5342466 23.5890411 12.5342466 23.4657534 12.5342466 23.3424658 12.5342466 22.8082192 12.4931507 22.6849315 12 22.4383562 10.6849315 22.6438356 10.3150685 22.7671233 9.69863014 22.8493151 9.28767123 22.7671233 9.08219178 22.6849315 9 22.6027397 8.91780822 22.4794521 8.83561644 22.2739726 9.04109589 18.5342466 12.739726 18.2054795 12.5753425 17.5068493 12.4520548 16.6849315 12.2876712 16.5205479 11.2191781 16.5205479 10.8493151 16.5205479 10.4794521 16.2739726 10.5616438 16.1506849 10.6849315 16.0273973 10.8082192 15.4931507 11.4657534 14.5890411 11.8767123 13.3150685 12.4520548 13.1506849 11.5068493 13.1506849 11.5068493 13.1506849 11.5068493 13.109589 10.9315068 13.0273973 10.5205479 12.8219178 10.1917808 12.6164384 10.4383562 12.6164384 10.4383562 12.6164384 10.4383562 10.799002 12.5753425 9.53424658 12.9041096 8.26949116 13.2328767 7.97260274 11.8767123 8.17808219 11.3013699 9 9 10.6849315 8.01369863 11.9589041 7.52054795 13.2328767 7.02739726 13.3150685 7.68493151 13.4794521 7.89041096zM12.2465753 9.04109589C12.2465753 9.04109589 11.7123288 9.04109589 11.3013699 9.36986301 10.890411 9.69863014 9.8630137 10.7671233 9.8630137 10.7671233 9.8630137 10.7671233 9.45205479 11.2191781 9.65753425 11.4246575 9.8630137 11.630137 10.5205479 11.1369863 10.5205479 11.1369863 10.5205479 11.1369863 12.1643836 9.8630137 12.3287671 9.53424658 12.4931507 9.20547945 12.2465753 9.04109589 12.2465753 9.04109589zM21.1232877 2.91780822C21.1232877 2.91780822 19.3150685 5.21917808 18.4520548 7.06849315 17.5890411 8.91780822 19.6438356 6 19.6438356 6L21.3287671 3.36986301C21.3287671 3.36986301 21.5342466 2.83561644 21.4520548 2.71232877 21.369863 2.5890411 21.1232877 2.91780822 21.1232877 2.91780822zM27.6575342 11.5890411C27.5753425 11.8356164 27.0410959 13.7260274 26.3835616 15.0821918 26.0547945 15.8219178 26.2191781 16.109589 26.8356164 15.2054795 27.4520548 14.3013699 28.2328767 13.3150685 28.3561644 12.6575342 28.4794521 12 28.2328767 11.7123288 28.0273973 11.4657534 27.8219178 11.2191781 27.739726 11.3424658 27.6575342 11.5890411zM35.260274 7.76712329C35.260274 7.76712329 35.0958904 7.2739726 34.5616438 7.64383562 34.0273973 8.01369863 33.0821918 9.08219178 33.0821918 9.82191781 33.0821918 10.5616438 33.0616924 11.3013699 33.6164384 11.1780822 34.1711843 11.0547945 34.8493151 10.4794521 35.2191781 9.57534247 35.5890411 8.67123288 35.260274 7.76712329 35.260274 7.76712329zM56.0547945 1.97260274C55.9315068 2.1369863 55.8493151 2.71232877 56.2191781 3.08219178 56.5890411 3.45205479 56.8767123 3 56.8767123 3 56.8767123 3 57.2988104 2.34246575 56.9178082 1.97260274 56.5368061 1.60273973 56.2394836 1.67927303 56.0547945 1.97260274z"/>
      <path d="M24.369863,3.24657534 C24.2054795,3.32876712 24.0108952,3.36986301 24.1232877,3.98630137 C24.2356801,4.60273973 24.4520548,4.7260274 24.8219178,4.56164384 C25.1917808,4.39726027 25.2739726,3.90410959 25.1917808,3.57534247 C25.109589,3.24657534 24.6476611,3.08219178 24.369863,3.24657534 Z"/>
    </g>
    <path fill="#071A47" d="M19.2993164,24.3700235 L23.9030273,24.3700235 C24.7573285,24.4227582 25.3479476,24.4860388 25.6749023,24.5598673 C27.0249091,25.034479 27.9503881,25.6461917 28.4513672,26.3950235 C28.9523463,27.1438554 29.229199,27.755568 29.2819336,28.2301798 L29.2661133,33.4825235 C29.1922848,34.6743264 28.838968,35.5813486 28.2061523,36.2036173 L28.2061523,36.899711 C28.554201,37.3321351 28.8073234,37.7961929 28.9655273,38.2918985 C29.1237313,38.7876041 29.2239256,39.4204103 29.2661133,40.190336 L29.2661133,44.9047892 C29.1922848,48.0372267 28.1745215,49.6086954 26.212793,49.6192423 L19.3151367,49.6192423 C18.6823211,49.6192423 18.365918,49.2079183 18.365918,48.3852579 L18.3817383,25.2717814 C18.423926,24.7127942 18.7297823,24.4122113 19.2993164,24.3700235 Z M21.5458008,29.0686564 L21.5458008,33.656547 C21.51416,34.5952236 21.7303688,35.0645548 22.1944336,35.0645548 L23.9188477,35.0645548 C25.3004952,35.0540079 25.9860352,34.2524534 25.9754883,32.6598673 L25.9754883,30.1918985 C25.9754883,28.5043901 25.2846749,27.6606485 23.9030273,27.6606485 L22.2102539,27.6606485 C21.756736,27.6606485 21.5352539,28.1299798 21.5458008,29.0686564 Z M21.5299805,39.430961 L21.5299805,45.3952189 C21.5299805,46.1229569 21.756736,46.4868204 22.2102539,46.4868204 L23.9030273,46.4868204 C25.2846749,46.4868204 25.9754883,45.9700287 25.9754883,44.9364298 L25.9754883,39.5575235 C25.9754883,38.5766593 25.2899483,38.0862345 23.9188477,38.0862345 L22.2102539,38.0862345 C21.7778299,38.0967814 21.5510743,38.5450191 21.5299805,39.430961 Z M35.6170898,24.4333048 L41.7079102,24.4333048 C42.2774443,24.4333048 42.5674804,24.7866216 42.5780273,25.4932657 L42.562207,26.9645548 C42.562207,27.5446358 42.2721709,27.8399454 41.6920898,27.8504923 L40.8061523,27.834672 C40.2998998,27.7397496 40.0467773,27.9770519 40.0467773,28.546586 L40.0467773,44.8098673 C40.0467773,45.8118254 40.2313458,46.312797 40.6004883,46.312797 L41.6920898,46.312797 C42.2721709,46.3233439 42.562207,46.6344736 42.562207,47.2461954 L42.562207,48.8282267 C42.562207,49.3977608 42.2721709,49.6825235 41.6920898,49.6825235 L35.6170898,49.6825235 C35.015915,49.6825235 34.715332,49.3977608 34.715332,48.8282267 L34.715332,47.2620157 C34.715332,46.6292001 35.015915,46.312797 35.6170898,46.312797 L36.4239258,46.312797 C36.8563498,46.312797 37.0725586,46.0913148 37.0725586,45.6483439 L37.0725586,28.546586 C37.0725586,28.0719743 36.8827167,27.834672 36.5030273,27.834672 L35.6170898,27.834672 C35.015915,27.834672 34.715332,27.5446358 34.715332,26.9645548 L34.7311523,25.509086 C34.7206054,24.791895 35.015915,24.4333048 35.6170898,24.4333048 Z M48.6442383,24.3700235 L53.2479492,24.3700235 C54.1022504,24.4227582 54.6928695,24.4860388 55.0198242,24.5598673 C56.369831,25.034479 57.29531,25.6461917 57.7962891,26.3950235 C58.2972681,27.1438554 58.5741208,27.755568 58.6268555,28.2301798 L58.6110352,33.4825235 C58.5372067,34.6743264 58.1838899,35.5813486 57.5510742,36.2036173 L57.5510742,36.899711 C57.8991228,37.3321351 58.1522453,37.7961929 58.3104492,38.2918985 C58.4686531,38.7876041 58.5688474,39.4204103 58.6110352,40.190336 L58.6110352,44.9047892 C58.5372067,48.0372267 57.5194434,49.6086954 55.5577148,49.6192423 L48.6600586,49.6192423 C48.0272429,49.6192423 47.7108398,49.2079183 47.7108398,48.3852579 L47.7266602,25.2717814 C47.7688479,24.7127942 48.0747042,24.4122113 48.6442383,24.3700235 Z M50.8907227,29.0686564 L50.8907227,33.656547 C50.8590819,34.5952236 51.0752906,35.0645548 51.5393555,35.0645548 L53.2637695,35.0645548 C54.6454171,35.0540079 55.3309571,34.2524534 55.3204102,32.6598673 L55.3204102,30.1918985 C55.3204102,28.5043901 54.6295968,27.6606485 53.2479492,27.6606485 L51.5551758,27.6606485 C51.1016579,27.6606485 50.8801757,28.1299798 50.8907227,29.0686564 Z M50.8749023,39.430961 L50.8749023,45.3952189 C50.8749023,46.1229569 51.1016579,46.4868204 51.5551758,46.4868204 L53.2479492,46.4868204 C54.6295968,46.4868204 55.3204102,45.9700287 55.3204102,44.9364298 L55.3204102,39.5575235 C55.3204102,38.5766593 54.6348701,38.0862345 53.2637695,38.0862345 L51.5551758,38.0862345 C51.1227517,38.0967814 50.8959962,38.5450191 50.8749023,39.430961 Z M64.9620117,24.4333048 L71.052832,24.4333048 C71.6223661,24.4333048 71.9124023,24.7866216 71.9229492,25.4932657 L71.9071289,26.9645548 C71.9071289,27.5446358 71.6170927,27.8399454 71.0370117,27.8504923 L70.1510742,27.834672 C69.6448217,27.7397496 69.3916992,27.9770519 69.3916992,28.546586 L69.3916992,44.8098673 C69.3916992,45.8118254 69.5762677,46.312797 69.9454102,46.312797 L71.0370117,46.312797 C71.6170927,46.3233439 71.9071289,46.6344736 71.9071289,47.2461954 L71.9071289,48.8282267 C71.9071289,49.3977608 71.6170927,49.6825235 71.0370117,49.6825235 L64.9620117,49.6825235 C64.3608368,49.6825235 64.0602539,49.3977608 64.0602539,48.8282267 L64.0602539,47.2620157 C64.0602539,46.6292001 64.3608368,46.312797 64.9620117,46.312797 L65.7688477,46.312797 C66.2012717,46.312797 66.4174805,46.0913148 66.4174805,45.6483439 L66.4174805,28.546586 C66.4174805,28.0719743 66.2276386,27.834672 65.8479492,27.834672 L64.9620117,27.834672 C64.3608368,27.834672 64.0602539,27.5446358 64.0602539,26.9645548 L64.0760742,25.509086 C64.0655273,24.791895 64.3608368,24.4333048 64.9620117,24.4333048 Z M79.5553711,24.3858439 C80.0405298,24.3858439 80.2831055,24.7233405 80.2831055,25.3983439 L80.2831055,31.2835001 C80.2831055,31.7475649 80.4307602,31.7475649 80.7260742,31.2835001 L83.905957,25.0344767 C84.0747079,24.6020526 84.3067368,24.3858439 84.6020508,24.3858439 L87.0700195,24.3858439 C87.6817413,24.3858439 87.8610364,24.6547865 87.6079102,25.1926798 L83.6211914,33.1819376 C83.4313467,33.561627 83.4155266,33.9940446 83.5737305,34.4792032 L88.1774414,48.7807657 C88.230176,48.9389696 88.256543,49.0760777 88.256543,49.1920939 C88.256543,49.5190486 88.0403342,49.6825235 87.6079102,49.6825235 L85.7411133,49.6825235 C85.3192362,49.6825235 85.0081065,49.3555737 84.8077148,48.7016642 L81.8967773,39.3676798 C81.7069326,38.8297865 81.4538102,38.5608439 81.1374023,38.5608439 L80.8209961,38.5608439 C80.4624006,38.5608439 80.2831055,38.7401389 80.2831055,39.0987345 L80.2831055,49.0813517 C80.346387,49.4821349 80.1354516,49.6825235 79.650293,49.6825235 L77.9416992,49.6825235 C77.4776344,49.6825235 77.2456055,49.4346745 77.2456055,48.9389689 L77.2456055,25.303422 C77.2456055,24.6917002 77.4881812,24.3858439 77.9733398,24.3858439 L79.5553711,24.3858439 Z M96.1737305,24.3700235 L98.1354492,24.3700235 C98.5362325,24.5809621 98.7735348,24.9026386 98.8473633,25.3350626 L102.565137,48.4168985 C102.565137,49.1762773 102.269827,49.5981481 101.679199,49.6825235 L100.033887,49.6825235 C99.4854465,49.4399442 99.2112305,48.8282316 99.2112305,47.8473673 C99.1479489,46.4762667 98.7946321,45.7590864 98.1512695,45.6958048 L96.5692383,45.7116251 C95.8731411,45.7432659 95.4776372,46.3866188 95.3827148,47.6417032 L95.2245117,48.9864298 C95.1190424,49.4294008 94.8342797,49.6614297 94.3702148,49.6825235 L92.6458008,49.6825235 C92.171189,49.4504911 91.9338867,49.0708074 91.9338867,48.543461 L95.540918,25.3825235 C95.6252934,24.9079118 95.8362288,24.5704152 96.1737305,24.3700235 Z M96.1737305,40.190336 L95.9838867,41.4243204 C95.941699,42.2469808 96.0840804,42.6741249 96.4110352,42.7057657 L97.9456055,42.7057657 C98.3147479,42.7268596 98.4676761,42.294442 98.4043945,41.4085001 L98.0088867,38.2286173 C97.9245113,37.6063486 97.7030291,37.2688519 97.3444336,37.2161173 C96.848728,37.2266642 96.5639652,37.5483407 96.4901367,38.1811564 L96.1737305,40.190336 Z"/>
    <g transform="rotate(3 -46.063 1863.386)">
      <rect width="17.425" height="10.027" x="1" y=".073" fill="#B9190A"/>
      <text fill="#000" font-family="Helvetica-Bold, Helvetica" font-size="5.4" font-weight="bold" letter-spacing="-.218">
        <tspan x="4.158" y="5.073">201</tspan> <tspan x="12.513" y="5.073" letter-spacing="-.249">7</tspan>
      </text>
      <text fill="#000" font-family="Helvetica-Bold, Helvetica" font-size="3" font-weight="bold" letter-spacing="-.975">
        <tspan x="2.232" y="8.8">Z</tspan>
      </text>
      <text fill="#000" font-family="CenturySchoolbook, Century Schoolbook" font-size="2.4">
        <tspan x="5.242" y="8.358">4205042</tspan>
      </text>
      <text fill="#000" font-family="Helvetica-Bold, Helvetica" font-size="2.4" font-weight="bold" letter-spacing="-.975">
        <tspan x=".063" y="4.494">C</tspan> <tspan x=".063" y="6.594">A</tspan>
      </text>
      <text fill="#000" font-family="Helvetica-Bold, Helvetica" font-size="1.5" font-weight="bold" letter-spacing="-.975">
        <tspan x="16.579" y="2.476">A</tspan> <tspan x="16.579" y="3.976">C</tspan> <tspan x="16.633" y="5.476">T</tspan> <tspan x="16.496" y="6.976">M</tspan>
      </text>
    </g>
    <g transform="rotate(-2 143.7 -117.886)">
      <rect width="17.425" height="10.027" x=".235" y=".166" fill="#E2E1DC"/>
      <text fill="#022B7D" font-family="Arial-Black, Arial Black" font-size="5.4" font-weight="700" letter-spacing="-.15">
        <tspan x="2.126" y="5.029">APP</tspan> <tspan x="1.114" y="9.529">INF</tspan> <tspan x="10.865" y="9.529" letter-spacing="-.675">O</tspan>
      </text>
    </g>
    <g transform="translate(22.825 4.467)">
      <g transform="rotate(-10 5.137 .094)">
        <circle cx="1.7" cy="1.669" r="1.644" fill="#D8D8D8" stroke="#9B9B9B" stroke-linecap="round" stroke-width=".5"/>
      </g>
      <g transform="rotate(22 35.199 181.999)">
        <circle cx="1.7" cy="1.669" r="1.644" fill="#D8D8D8" stroke="#9B9B9B" stroke-linecap="round" stroke-width=".5"/>
      </g>
      <g transform="rotate(67 1.454 78.195)">
        <circle cx="1.7" cy="1.669" r="1.644" fill="#D8D8D8" stroke="#9B9B9B" stroke-linecap="round" stroke-width=".5"/>
      </g>
      <g transform="rotate(5 -537.854 29.014)">
        <circle cx="1.7" cy="1.669" r="1.644" fill="#D8D8D8" stroke="#9B9B9B" stroke-linecap="round" stroke-width=".5"/>
      </g>
    </g>
  </g>
</svg>
