<?xml version="1.0" encoding="UTF-8"?>
<svg width="225px" height="225px" viewBox="0 0 225 225" version="1.1" xmlns="http://www.w3.org/2000/svg" xmlns:xlink="http://www.w3.org/1999/xlink">
    <!-- Generator: Sketch 42 (36781) - http://www.bohemiancoding.com/sketch -->
    <title>masha</title>
    <desc>Created with Sketch.</desc>
    <defs>
        <circle id="path-1" cx="110.365234" cy="110.076172" r="110"></circle>
        <mask id="mask-3" maskContentUnits="userSpaceOnUse" maskUnits="objectBoundingBox" x="-2" y="-2" width="224" height="224">
            <rect x="-1.63476562" y="-1.92382812" width="224" height="224" fill="white"></rect>
            <use xlink:href="#path-1" fill="black"></use>
        </mask>
        <path d="M3.01463148,6.83645108 C3.01376829,5.1770668 4.34605382,3.61278535 5.98067185,3.34412538 L15.0661468,1.85086921 C16.7051089,1.58149527 18.0337501,2.69661793 18.0337501,4.36608967 L18.0337501,40.5865318 C18.0337501,42.2450236 16.6893994,43.5894969 15.0343277,43.5894969 L6.03317261,43.5894969 C4.37663732,43.5894969 3.03305017,42.2439081 3.03218717,40.5849159 L3.01463148,6.83645108 Z" id="path-4"></path>
        <mask id="mask-5" maskContentUnits="userSpaceOnUse" maskUnits="objectBoundingBox" x="0" y="0" width="15.0191191" height="41.7787355" fill="white">
            <use xlink:href="#path-4"></use>
        </mask>
        <path d="M3.01463148,6.83645108 C3.01376829,5.1770668 4.34605382,3.61278535 5.98067185,3.34412538 L15.0661468,1.85086921 C16.7051089,1.58149527 18.0337501,2.69661793 18.0337501,4.36608967 L18.0337501,40.5865318 C18.0337501,42.2450236 16.6893994,43.5894969 15.0343277,43.5894969 L6.03317261,43.5894969 C4.37663732,43.5894969 3.03305017,42.2439081 3.03218717,40.5849159 L3.01463148,6.83645108 Z" id="path-6"></path>
        <mask id="mask-7" maskContentUnits="userSpaceOnUse" maskUnits="objectBoundingBox" x="0" y="0" width="15.0191191" height="41.7787355" fill="white">
            <use xlink:href="#path-6"></use>
        </mask>
    </defs>
    <g id="Welcome" stroke="none" stroke-width="1" fill="none" fill-rule="evenodd">
        <g id="Desktop" transform="translate(-614.000000, -2774.000000)">
            <g id="about-creators" transform="translate(0.000000, 2599.000000)">
                <g id="Group-5" transform="translate(147.000000, 177.000000)">
                    <g id="masha" transform="translate(430.000000, 0.000000)">
                        <g transform="translate(39.000000, 0.000000)">
                            <mask id="mask-2" fill="white">
                                <use xlink:href="#path-1"></use>
                            </mask>
                            <g id="Oval-5">
                                <use fill="#FDF04E" fill-rule="evenodd" xlink:href="#path-1"></use>
                                <use stroke="#4A4A4A" mask="url(#mask-3)" stroke-width="4" xlink:href="#path-1"></use>
                            </g>
                            <g id="Group-4" mask="url(#mask-2)">
                                <g transform="translate(36.865234, 16.000000)">
                                    <g id="neck" stroke="none" stroke-width="1" fill="none" fill-rule="evenodd" transform="translate(6.000000, 131.000000)">
                                        <path d="M53,11.6725 C53,5.5675 56.4319,0.6175 62.5369,0.6175 L72.3389,0.6175 C78.4439,0.6175 81.5,5.5675 81.5,11.6725 C81.5,11.6725 80.7878,34.1330887 83.3939,38.0665444 C86,42 116.038079,51.1242158 116.038079,51.1242158 C129,56 134.5,64 135,74.9948021 L135,95.0051979 C119,95.0051979 16.5,95.0051979 0,95.0051979 L0,74.9948021 C0,64 5.5,55.5 18.9104013,51.1448238 C18.9104013,51.1448238 48.9638,42.2324487 51.4819,38.1162244 C54,34 53,11.6725 53,11.6725 Z" id="Combined-Shape" stroke="#4A4A4A" stroke-width="2" fill="#F2E9DF" fill-rule="nonzero"></path>
                                    </g>
                                    <path d="M28,231.348051 C26.901125,226.617091 24.7326511,222.063239 20.5199045,218.401154 C16.0752587,214.537482 10.9318082,212.232854 6,211.540942 L6,205.994802 C6,195 11.5,186.5 24.9104013,182.144824 C24.9104013,182.144824 35.4252156,179.026642 44.5369569,175.627235 C47.1656605,184.385678 59.1335329,191 73.5,191 C87.9131662,191 99.9121188,184.342608 102.488381,175.541757 C111.594005,178.951777 122.038079,182.124216 122.038079,182.124216 C135,187 140.5,195 141,205.994802 L141,211.661031 C136.30445,212.475041 131.460838,214.737008 127.24572,218.401154 C124.019973,221.205254 121.164214,224.685338 119,228.372428 C119,228.372428 113.5,265 113.5,282 C118.5,297 119,306.000368 119,306.000368 C119,306.552449 118.553295,307 118.009042,307 L28.9909583,307 C28.4436671,307 28,306.549699 28,306.000368 C28,306.000368 29,295.5 34,282 C34,270.734506 28,231.348051 28,231.348051 Z" id="tshirt" stroke="#4A4A4A" stroke-width="2" fill="#6EB859" fill-rule="nonzero"></path>
                                    <g id="overall" stroke="none" stroke-width="1" fill="none" fill-rule="evenodd" transform="translate(15.500000, 172.000000)">
                                        <g id="stripe-left" transform="translate(13.500000, 0.000000)" stroke="#4A4A4A" stroke-width="4" fill="#296A9E">
                                            <use id="Rectangle-7" mask="url(#mask-5)" transform="translate(10.524191, 22.700129) rotate(-8.000000) translate(-10.524191, -22.700129) " xlink:href="#path-4"></use>
                                        </g>
                                        <g id="stripe-right" transform="translate(90.000000, 30.000000) scale(-1, 1) translate(-90.000000, -30.000000) translate(77.500000, 0.000000)" stroke="#4A4A4A" stroke-width="4" fill="#296A9E">
                                            <use id="Rectangle-7" mask="url(#mask-7)" transform="translate(10.524191, 22.700129) rotate(-8.000000) translate(-10.524191, -22.700129) " xlink:href="#path-6"></use>
                                        </g>
                                    </g>
                                    <g id="head" stroke="none" stroke-width="1" fill="none" fill-rule="evenodd" transform="translate(73.134766, 78.879883) scale(-1, 1) translate(-73.134766, -78.879883) translate(0.134766, 0.379883)">
                                        <g id="face" transform="translate(25.000000, 19.000000)" stroke="#4A4A4A" stroke-width="2" fill="#F2E9DF" fill-rule="nonzero">
                                            <path d="M0.0039,43.1748 L0.0039,90.8328 C0.0039,120.0068 33.8088954,137.8858 48.2240866,137.8858 C62.6392779,137.8858 96.4442733,120.0068 96.4442733,90.8328 L96.4442733,43.1748 C96.4442733,20.1978 78.4159622,0.9438 48.2240866,0.9438 C18.032211,0.9438 0.0039,20.1978 0.0039,43.1748 Z" id="Fill-64"></path>
                                        </g>
                                        <path d="M131.559078,111.621 C131.118157,109.4092 135.241469,107.698949 138,105.121 C140.758531,102.543051 147.038531,96.4287962 145.5,94.121 C143.961469,91.8132038 135.419098,100.140096 132,96.121 C128.580902,92.1019043 135.960205,66.5012947 135.960205,58.2784399 C135.960205,26.2459244 108.20186,0.278439909 73.9602051,0.278439909 C39.7185506,0.278439909 11.9602051,26.2459244 11.9602051,58.2784399 C11.9602051,66.075365 17,91.621 13.5,97.121 C10,102.621 2,95.621 1,97.121 C-4.0167869e-13,98.621 1.87294819,102.478067 6,107.121 C10.1270518,111.763933 17.5633666,113.033964 18,115.121 C18.12837,115.734588 16.1283195,117.005183 13.5,117.121 C10.8716805,117.236817 8,116.160137 8,117.121 C8,118.159572 10.4711697,120.737758 13.5,122.121 C16.5288303,123.504242 20.6683761,123.481302 21,124.621 C21.6898569,126.991845 15.0725121,126.969298 15.5,127.621 C15.7150252,127.948804 18.1237283,129.542693 21,130.621 C23.8762717,131.699307 28.6480357,133.732994 29.5,134.621 C32.1491499,137.382219 24,136.621 25,138.121 C25.5649025,138.968354 28.3025495,141.088353 31,141.621 C33.6974505,142.153647 34.927286,140.803044 37,141.621 C39.0818715,142.44257 39.2406412,145.723741 41.5,146.915554 C43.7593588,148.107368 49.3433677,148.355573 47.2513803,146.915554 C35.4776917,138.811141 25.0039,126.071734 25.0039,109.8328 L25,75.5343409 C25,52.5573409 46.8081244,53.121 77,53.121 C84.5401379,53.121 85.0685061,30.9611587 91,33.121 C97.572721,35.514332 93.6389969,50.7018159 98,55.121 C102.361003,59.5401841 121.444273,53.2409215 121.444273,64.121 L121.444273,109.8328 C121.444273,124.9301 112.391378,137.002626 101.657482,145.137949 C98.7943464,147.307947 106.757266,146.571258 108.931685,145.607531 C110.96183,144.707747 109.624273,140.742612 111.5,139.699363 C113.375727,138.656115 118.115744,140.749924 119.671571,139.699363 C121.227399,138.648803 114.757057,135.245155 117,133.121 C117.948059,132.223151 120.244155,132.399227 122.5,131.621 C124.755845,130.842773 128.722762,128.580842 129.5,127.621 C130.909566,125.880272 122.91333,124.70338 124,122.121 C124.473135,120.996634 128.536925,121.473869 131.559078,120.121 C134.581232,118.768131 139,116.289935 139,115.121 C139,112.621 132,113.8328 131.559078,111.621 Z" id="Combined-Shape" stroke="#4A4A4A" stroke-width="2" fill="#A25209"></path>
                                        <g id="eyes" transform="translate(42.500000, 85.000000)" fill-rule="nonzero" fill="#313031">
                                            <path d="M10.5247,5.97833791 C10.5247,8.7395463 8.28687048,10.9773758 5.52566209,10.9773758 C2.7644537,10.9773758 0.5247,8.7395463 0.5247,5.97833791 C0.5247,3.21712952 2.7644537,0.9793 5.52566209,0.9793 C8.28687048,0.9793 10.5247,3.21712952 10.5247,5.97833791" id="Fill-68"></path>
                                            <path d="M61.1538,5.97833791 C61.1538,8.7395463 58.9159705,10.9773758 56.1547621,10.9773758 C53.3935537,10.9773758 51.1538,8.7395463 51.1538,5.97833791 C51.1538,3.21712952 53.3935537,0.9793 56.1547621,0.9793 C58.9159705,0.9793 61.1538,3.21712952 61.1538,5.97833791" id="Fill-72"></path>
                                        </g>
                                        <g id="Group-13" transform="translate(33.000000, 73.000000)" stroke="#4A4A4A" stroke-width="3" stroke-linecap="round">
                                            <path d="M59.5018987,2.61150806 C59.5018987,2.61150806 75.5,-2.879 80.3868585,4.80660579" id="Line"></path>
                                            <path d="M0.50189871,2.61150806 C0.50189871,2.61150806 16.5,-2.879 21.3868585,4.80660579" id="Line" transform="translate(10.944379, 2.759030) scale(-1, 1) translate(-10.944379, -2.759030) "></path>
                                        </g>
                                        <path d="M58.5,130.621 C66.2181816,134.121 79.0818176,134.121 86.7999992,130.221006" id="mouth" stroke="#4A4A4A" stroke-width="2" stroke-linecap="round"></path>
                                        <path d="M80.3219045,106.871993 L81.0097627,111.151109 C81.6736885,115.281344 78.3016874,118.62956 73.5000545,118.62956 C68.6886314,118.62956 65.3268131,115.278902 65.9903464,111.151109" id="nouse" stroke="#4A4A4A" stroke-width="2" stroke-linecap="round" transform="translate(73.500000, 112.750777) scale(-1, 1) translate(-73.500000, -112.750777) "></path>
                                    </g>
                                </g>
                            </g>
                        </g>
                    </g>
                </g>
            </g>
        </g>
    </g>
</svg>